<svg width="14" height="13" viewBox="0 0 14 13" fill="none" xmlns="http://www.w3.org/2000/svg">
  <path
    d="M12.5664 10.8086C13.0488 11.2539 13.0488 12.0332 12.5664 12.4785C12.3438 12.7012 12.0469 12.8125 11.75 12.8125C11.416 12.8125 11.1191 12.7012 10.8965 12.4785L7 8.58203L3.06641 12.4785C2.84375 12.7012 2.54688 12.8125 2.25 12.8125C1.91602 12.8125 1.61914 12.7012 1.39648 12.4785C0.914063 12.0332 0.914063 11.2539 1.39648 10.8086L5.29297 6.875L1.39648 2.97852C0.914063 2.5332 0.914063 1.75391 1.39648 1.30859C1.8418 0.826172 2.62109 0.826172 3.06641 1.30859L7 5.20508L10.8965 1.30859C11.3418 0.826172 12.1211 0.826172 12.5664 1.30859C13.0488 1.75391 13.0488 2.5332 12.5664 2.97852L8.66992 6.91211L12.5664 10.8086Z"
    fill="#1D6FE1"/>
</svg>
