<svg width="98" height="97" viewBox="0 0 98 97" fill="none" xmlns="http://www.w3.org/2000/svg">
<path d="M21.7464 75.0034H3.74639C3.32451 75.0034 2.99639 75.3784 2.99639 75.7534V90.7534V90.8003L3.18389 90.519L6.93389 85.269C7.16826 84.9409 7.49639 84.7534 7.87139 84.7534C8.19951 84.7534 8.57451 84.9409 8.76201 85.2222L10.2151 87.2378L14.1058 82.2222C14.2933 81.9409 14.6214 81.7534 14.9964 81.7534C15.3245 81.7534 15.6526 81.9409 15.887 82.2222L22.262 90.4722L22.4964 90.7534V75.7534C22.4964 75.3784 22.1214 75.0034 21.7464 75.0034ZM3.74639 72.7534H21.7464C23.387 72.7534 24.7464 74.1128 24.7464 75.7534V90.7534C24.7464 92.4409 23.387 93.7534 21.7464 93.7534H3.74639C2.05889 93.7534 0.746388 92.4409 0.746388 90.7534V75.7534C0.746388 74.1128 2.05889 72.7534 3.74639 72.7534ZM7.49639 81.7534C6.65264 81.7534 5.94951 81.3315 5.52764 80.6284C5.10576 79.9722 5.10576 79.0815 5.52764 78.3784C5.94951 77.7222 6.65264 77.2534 7.49639 77.2534C8.29326 77.2534 8.99639 77.7222 9.41826 78.3784C9.84014 79.0815 9.84014 79.9722 9.41826 80.6284C8.99639 81.3315 8.29326 81.7534 7.49639 81.7534Z" fill="white"/>
<path d="M86.1526 1.75342L79.4026 23.5034C79.2151 24.0659 78.6058 24.394 77.9964 24.2065C77.4339 24.019 77.1058 23.4097 77.2933 22.8003L84.0433 1.05029C84.2308 0.487791 84.8401 0.159666 85.4495 0.347166C86.012 0.534666 86.3401 1.14404 86.1526 1.75342ZM90.3714 5.83154L96.3714 11.4565C96.6058 11.644 96.7464 11.9722 96.7464 12.2534C96.7464 12.5815 96.6058 12.8628 96.3714 13.0972L90.3714 18.7222C89.9026 19.144 89.1995 19.144 88.7776 18.6753C88.3558 18.2065 88.3558 17.5034 88.8245 17.0815L93.9339 12.2534L88.8245 7.47217C88.3558 7.05029 88.3558 6.34717 88.7776 5.87842C89.1995 5.40967 89.9026 5.40967 90.3714 5.83154ZM74.6214 7.47217L69.512 12.2534L74.6214 17.0815C75.0901 17.5034 75.0901 18.2065 74.6683 18.6753C74.2464 19.144 73.5433 19.144 73.0745 18.7222L67.0745 13.0972C66.8401 12.8628 66.7464 12.5815 66.7464 12.2534C66.7464 11.9722 66.8401 11.644 67.0745 11.4565L73.0745 5.83154C73.5433 5.40967 74.2464 5.40967 74.6683 5.87842C75.0901 6.34717 75.0901 7.05029 74.6214 7.47217Z" fill="white"/>
<rect x="48" y="47" width="50" height="50" rx="25" fill="white" fill-opacity="0.12"/>
<path d="M77.2055 78.5105L77.2055 78.185C77.2055 77.6153 76.7579 77.2084 76.2289 77.2084C75.6593 77.2084 75.2524 77.6153 75.2524 78.185L75.2524 78.5105C75.2524 78.836 74.9675 79.1615 74.6013 79.1615L65.8802 79.1615C65.514 79.1615 65.2292 78.836 65.2292 78.5105L65.2292 65.4897C65.2292 65.1235 65.514 64.8386 65.8802 64.8386L74.6013 64.8386C74.9675 64.8386 75.2524 65.1235 75.2524 65.4897L75.2524 65.8152C75.2524 66.3442 75.6593 66.7917 76.2289 66.7917C76.7579 66.7917 77.2055 66.3442 77.2055 65.8152L77.2055 65.4897C77.2055 64.0248 76.0255 62.8855 74.6013 62.8855L65.8802 62.8855C64.4154 62.8855 63.276 64.0248 63.276 65.4897L63.276 78.5105C63.276 79.9347 64.4154 81.1147 65.8802 81.1147L74.6013 81.1147C76.0255 81.1147 77.2055 79.9347 77.2055 78.5105ZM78.2653 68.4346C78.2653 68.6788 78.3467 68.9229 78.5501 69.1264L80.61 71.0235L71.0885 71.0235C70.5189 71.0235 70.112 71.4304 70.112 72.0001C70.112 72.5291 70.5189 72.9766 71.0885 72.9766L80.61 72.9766L78.5501 74.8331C78.3467 75.0366 78.2653 75.2807 78.2653 75.5655C78.2653 76.0945 78.7129 76.5421 79.2418 76.5421C79.486 76.5421 79.6894 76.42 79.8929 76.2573L83.7839 72.6918C83.9873 72.5291 84.1094 72.2442 84.1094 72.0001C84.1094 71.7153 83.9873 71.4304 83.7839 71.2677L79.8929 67.7022C79.6894 67.5395 79.486 67.4174 79.2418 67.4174C78.6722 67.4174 78.2653 67.865 78.2653 68.4346Z" fill="white"/>
<path d="M36 38.75C36.375 38.75 36.75 38.4219 36.75 38V24.5H33C32.1562 24.5 31.5 23.8438 31.5 23V19.25H24C23.5781 19.25 23.25 19.625 23.25 20V38C23.25 38.4219 23.5781 38.75 24 38.75H36ZM21 20C21 18.3594 22.3125 17 24 17H31.7344C32.5312 17 33.2812 17.3281 33.8438 17.8906L38.1094 22.1562C38.6719 22.7188 39 23.4688 39 24.2656V38C39 39.6875 37.6406 41 36 41H24C22.3125 41 21 39.6875 21 38V20Z" fill="white"/>
<path d="M30.5337 29.7038C30.5337 29.5513 30.5845 29.3989 30.6354 29.2464C30.737 28.9922 31.042 27.6706 31.042 26.6032C31.042 25.6374 30.2796 24.875 29.3138 24.875C28.3989 24.875 27.6364 25.6374 27.6364 26.6032C27.6364 26.6032 27.6364 28.0773 28.2972 29.7547C27.9414 30.7713 27.5348 31.737 27.0265 32.7028C25.959 33.2111 25.0441 33.8211 24.3325 34.5327C24.0275 34.8885 23.875 35.2951 23.875 35.8034C23.875 36.7184 24.6374 37.4808 25.5524 37.4808C26.1115 37.4808 26.6198 37.2267 26.9756 36.7692C27.3314 36.2609 27.8906 35.4476 28.5005 34.3294C29.3138 33.9735 30.2287 33.7194 31.2453 33.5161C31.9061 33.9735 32.7194 34.3802 33.5835 34.6343C33.7868 34.736 34.041 34.7868 34.2951 34.7868C35.3117 34.7868 36.125 33.9735 36.125 32.9061C36.125 31.8895 35.3117 31.0254 34.2443 31.0254H34.0918C33.9393 31.0254 33.0244 31.0762 31.7536 31.2796C31.2453 30.8221 30.8387 30.3138 30.5337 29.7038ZM25.8574 36.0067C25.654 36.2609 25.2474 36.1592 25.2474 35.7526C25.2474 35.6509 25.2474 35.5493 25.2982 35.4984C25.7557 35.041 26.3148 34.6343 26.9248 34.2785C26.4673 35.1426 26.0607 35.7018 25.8574 36.0067ZM29.3138 26.2474C29.5171 26.2474 29.6696 26.3999 29.6696 26.6032C29.6696 27.3657 29.4663 28.3823 29.3646 28.7381C29.0088 27.569 28.958 26.7049 28.958 26.6032C28.958 26.3999 29.1105 26.2474 29.3138 26.2474ZM28.5005 32.8553C28.8055 32.1437 29.1613 31.3812 29.4663 30.5679C29.8221 31.1271 30.2287 31.6862 30.737 32.1945C30.0254 32.347 29.263 32.5503 28.5005 32.8553ZM34.0918 32.3978H34.2443C34.5493 32.3978 34.7526 32.6011 34.7526 32.957C34.7526 33.2111 34.5493 33.4144 34.2951 33.4144C34.1935 33.4144 34.0918 33.4144 33.9901 33.3636C33.3802 33.1603 32.8211 32.9061 32.3636 32.6011C33.3802 32.4487 34.0918 32.3978 34.0918 32.3978Z" fill="white"/>
</svg>
