<svg width="247" height="63" viewBox="0 0 247 63" fill="none" xmlns="http://www.w3.org/2000/svg">
<path d="M15.4922 14.4057C94.655 -27.3217 183.981 44.4761 245.492 14.4057" stroke="#AB51F6" stroke-width="2" stroke-linecap="round"/>
<g clip-path="url(#clip0_1702_84358)">
<path d="M16.3886 30.7511C16.7352 30.7814 17.0683 30.5661 17.2342 30.2663C17.3655 29.9635 17.3295 29.5762 17.0388 29.3063L8.37434 20.1667C8.14993 19.9376 7.80638 19.8726 7.51699 19.987C7.19598 20.0636 6.9954 20.3604 6.96508 20.707L5.85228 33.4263C5.81892 33.8076 5.99958 34.1377 6.3024 34.2689C6.40334 34.3127 6.50429 34.3565 6.60826 34.3655C6.8162 34.3837 7.0679 34.301 7.25939 34.1082L10.1255 31.2857L10.7465 30.6754C10.9943 30.4319 11.3363 30.3091 11.6824 30.3393L12.7495 30.4327L16.3886 30.7511Z" fill="#AB51F6"/>
<rect x="13.4844" y="37.3164" width="70.0625" height="19" rx="2" transform="rotate(5 13.4844 37.3164)" fill="#AB51F6"/>
<path d="M27.6422 49.484L26.0806 49.3474C25.6491 50.6828 24.5692 51.418 23.0502 51.2851C21.2616 51.1286 20.0835 49.5522 20.3058 47.0112C20.5318 44.4275 22.0009 43.1685 23.7328 43.3201C25.2375 43.4517 26.1567 44.3904 26.3523 45.7521L27.9138 45.8887C27.6854 43.5943 26.1221 42.1702 23.9217 41.9777C20.969 41.7193 18.9268 43.6434 18.6449 46.8659C18.3679 50.0315 19.9085 52.3692 22.8897 52.63C25.1752 52.83 27.0022 51.731 27.6422 49.484Z" fill="white"/>
<path d="M30.853 46.5607L31.1822 42.7988L29.7058 42.6697L28.8054 52.9616L30.2817 53.0908L30.6407 48.9882C30.7735 47.4692 31.4789 46.6012 32.7565 46.7129C34.1477 46.8347 34.2428 47.8729 34.1459 48.9802L33.7597 53.3951L35.2361 53.5242L35.6571 48.7118C35.8123 46.9374 35.2069 45.6828 33.3614 45.5214C32.169 45.417 31.3589 45.8468 30.853 46.5607Z" fill="white"/>
<path d="M41.5917 47.9151L41.7259 46.3819C41.5993 46.3565 41.4432 46.3429 41.3154 46.3317C40.3631 46.2627 39.553 46.6925 39.0798 47.5236L39.1978 46.175L37.7498 46.0484L37.0816 53.6857L38.558 53.8148L38.9082 49.8116C39.0486 48.2075 39.6932 47.706 40.8289 47.8054C41.0702 47.8265 41.3245 47.8631 41.5917 47.9151Z" fill="white"/>
<path d="M44.6016 43.9729L43.1252 43.8437L42.9824 45.4762L44.4588 45.6054L44.6016 43.9729ZM44.3693 46.6275L42.893 46.4983L42.2248 54.1357L43.7012 54.2648L44.3693 46.6275Z" fill="white"/>
<path d="M50.5164 49.3109L51.9785 49.4389C51.8238 47.9377 50.6595 47.0205 49.1264 46.8863C47.4513 46.7398 45.9597 47.4389 45.8417 48.7875C45.7163 50.2213 46.7504 50.8267 47.8804 51.1545L49.0104 51.4822C49.7917 51.7079 50.4341 52.0502 50.372 52.76C50.3123 53.4414 49.5394 53.7743 48.5883 53.6911C47.5236 53.5979 47.0005 53.0372 46.8775 52.1539L45.3727 52.0222C45.4318 53.4721 46.512 54.6967 48.4426 54.8656C50.2029 55.0196 51.7279 54.2661 51.8632 52.7188C51.9936 51.2282 50.7737 50.6209 49.3505 50.2103L48.2761 49.9017C47.5929 49.6989 47.245 49.4253 47.2946 48.8574C47.3493 48.2328 48.1561 48.003 48.8801 48.0664C49.7461 48.1421 50.3717 48.5116 50.5164 49.3109Z" fill="white"/>
<path d="M54.2866 45.5211L54.1152 47.4801L52.9511 47.3783L52.853 48.4998L54.0171 48.6016L53.6184 53.1584C53.4805 54.7342 53.7877 55.1473 55.3351 55.2826L56.4139 55.377L56.517 54.1988L55.8924 54.1441C55.1542 54.0796 55.0438 53.8696 55.1122 53.0889L55.4934 48.7308L56.9982 48.8624L57.0963 47.741L55.5916 47.6093L55.7629 45.6503L54.2866 45.5211Z" fill="white"/>
<path d="M60.3778 45.3531L58.9014 45.2239L58.7586 46.8565L60.2349 46.9856L60.3778 45.3531ZM60.1455 48.0077L58.6692 47.8786L58.001 55.5159L59.4773 55.6451L60.1455 48.0077Z" fill="white"/>
<path d="M63.5144 49.4182L63.6113 48.3109L62.1349 48.1818L61.4667 55.8191L62.9431 55.9483L63.302 51.8457C63.4349 50.3267 64.1403 49.4587 65.4179 49.5704C66.8091 49.6922 66.9042 50.7304 66.8073 51.8377L66.4211 56.2526L67.8974 56.3817L68.3185 51.5693C68.4737 49.7949 67.8682 48.5403 66.0228 48.3789C64.8303 48.2745 64.0203 48.7043 63.5144 49.4182Z" fill="white"/>
<path d="M69.4688 54.445C69.3471 55.8362 70.4508 56.7911 71.9982 56.9264C73.2332 57.0345 74.1364 56.6844 74.6577 55.9575C74.6439 56.4427 74.6666 56.6735 74.6973 56.9766L76.1169 57.1008C76.0345 56.407 76.0455 55.4639 76.1449 54.3282C76.1735 54.0017 76.3174 52.684 76.3335 52.4994C76.5618 50.2164 75.5094 49.1659 73.5362 48.9933C71.7901 48.8405 70.37 49.7033 70.1007 51.3104L71.5912 51.4408C71.73 50.5089 72.358 50.0346 73.3801 50.124C74.317 50.206 74.987 50.7223 74.869 52.0709L74.8554 52.2271C71.8611 52.2798 69.6315 52.5854 69.4688 54.445ZM74.8307 53.3264L74.7823 53.88C74.6494 55.3989 73.6449 55.9262 72.424 55.8193C71.5297 55.7411 71.0146 55.2526 71.0754 54.557C71.1624 53.5633 72.4401 53.3461 74.8307 53.3264Z" fill="white"/>
</g>
<defs>
<clipPath id="clip0_1702_84358">
<rect width="81.9375" height="38" fill="white" transform="translate(3.3125 17.3535) rotate(5)"/>
</clipPath>
</defs>
</svg>
