<svg width="95" height="47" viewBox="0 0 95 47" fill="none" xmlns="http://www.w3.org/2000/svg">
<g clip-path="url(#clip0_1701_84354)">
<path d="M41.116 15.0438C40.7715 15.0923 40.4275 14.8947 40.2462 14.604C40.0992 14.3084 40.1149 13.9198 40.391 13.635L48.5654 4.05456C48.7775 3.81396 49.1171 3.73109 49.4121 3.83016C49.7367 3.88993 49.9525 4.17579 50.001 4.5203L51.7779 17.164C51.8312 17.543 51.668 17.8821 51.3725 18.029C51.274 18.078 51.1755 18.127 51.0721 18.1415C50.8654 18.1705 50.6097 18.1011 50.4084 17.9186L47.3985 15.25L46.6817 14.6157C46.4626 14.4218 46.1696 14.3336 45.8798 14.3743L44.7334 14.5354L41.116 15.0438Z" fill="#00C2A4"/>
<rect x="2.64062" y="27.3101" width="42.75" height="19" rx="2" transform="rotate(-8 2.64062 27.3101)" fill="#00C2A4"/>
<path d="M9.09095 37.4262L10.6432 37.2081C10.8435 38.6333 11.6965 39.2761 12.7549 39.1274C13.7003 38.9945 14.4092 38.3049 14.1772 36.6538L13.2114 29.7816L14.8201 29.5555L15.7879 36.4419C16.0992 38.6573 15.056 40.1422 12.9393 40.4397C10.8085 40.7392 9.40231 39.6417 9.09095 37.4262Z" fill="white"/>
<path d="M24.723 34.7544C25.1078 37.492 23.3874 38.9713 21.5812 39.2252C19.789 39.477 17.7275 38.5292 17.3428 35.7916C16.9561 33.0399 18.6764 31.5606 20.4686 31.3087C22.2748 31.0549 24.3363 32.0027 24.723 34.7544ZM21.4066 37.9834C22.5214 37.8267 23.4306 36.8211 23.1708 34.9726C22.905 33.0816 21.7579 32.3938 20.6431 32.5505C19.5424 32.7052 18.6253 33.6543 18.895 35.5735C19.1588 37.4503 20.306 38.1381 21.4066 37.9834Z" fill="white"/>
<path d="M27.2729 31.6188C27.6052 30.8094 28.2978 30.2084 29.4832 30.0418C31.3176 29.784 32.1898 30.8702 32.4377 32.6341L33.11 37.4178L31.6424 37.6241L31.0257 33.2355C30.871 32.1348 30.5447 31.1445 29.1618 31.3389C27.8918 31.5174 27.3998 32.5219 27.612 34.0318L28.1852 38.11L26.7176 38.3162L25.2797 28.0855L26.7473 27.8793L27.2729 31.6188Z" fill="white"/>
<path d="M35.4999 30.4625C35.8322 29.6532 36.5248 29.0522 37.7102 28.8856C39.5447 28.6278 40.4168 29.7139 40.6647 31.4779L41.337 36.2616L39.8694 36.4679L39.2527 32.0792C39.098 30.9785 38.7717 29.9883 37.3888 30.1827C36.1188 30.3612 35.6268 31.3657 35.839 32.8756L36.4122 36.9537L34.9446 37.16L33.8776 29.5681L35.3452 29.3618L35.4999 30.4625Z" fill="white"/>
</g>
<path d="M56 1.98926C132 1.98926 223.268 1.9894 292 1.9894" stroke="#00C2A4" stroke-width="2" stroke-linecap="round"/>
<defs>
<clipPath id="clip0_1701_84354">
<rect width="54" height="38" fill="white" transform="translate(0 8.49512) rotate(-8)"/>
</clipPath>
</defs>
</svg>
