<svg width="248" height="108" viewBox="0 0 248 108" fill="none" xmlns="http://www.w3.org/2000/svg">
<g clip-path="url(#clip0_1348_156995)">
<g clip-path="url(#clip1_1348_156995)">
<path d="M9.90247 12.2792L8.07549 4.82209L7.59154 12.1261L6.25048 12.0372L6.82566 3.35625L9.01686 3.50143L10.7144 10.7335L13.3514 3.78863L15.5425 3.93381L14.9674 12.6148L13.6263 12.5259L14.1103 5.22194L11.3154 12.3728L9.90247 12.2792ZM21.2798 11.1329L22.537 11.2162C22.1671 12.262 21.1441 13.1804 19.5037 13.0717C17.4203 12.9336 16.3955 11.3384 16.5193 9.4705C16.6518 7.47089 18.0809 6.23066 19.9129 6.35204C21.9005 6.48374 22.9541 8.18912 22.6835 10.2758L17.7743 9.95053C17.8155 11.1439 18.5206 11.9362 19.5264 12.0029C20.4245 12.0624 20.9759 11.7261 21.2798 11.1329ZM17.8633 8.97027L21.4554 9.20827C21.4829 8.24799 20.8632 7.43725 19.8334 7.36902C18.8636 7.30475 18.1118 7.76005 17.8633 8.97027ZM24.5049 5.11694L25.7502 5.19945L25.6407 6.85182L26.9099 6.93592L26.8473 7.88185L25.578 7.79775L25.3345 11.4737C25.2909 12.1322 25.3875 12.307 26.0101 12.3483L26.537 12.3832L26.4711 13.377L25.5611 13.3167C24.256 13.2302 23.99 12.8879 24.0781 11.5588L24.3328 7.71524L23.3509 7.65018L23.4136 6.70426L24.3955 6.76931L24.5049 5.11694ZM27.4247 11.6964C27.5286 10.1278 29.4004 9.8309 31.9203 9.73329L31.9291 9.60158C32.0044 8.46408 31.4311 8.04125 30.6409 7.98889C29.7788 7.93177 29.2585 8.34227 29.1582 9.12936L27.901 9.04606C28.0992 7.68819 29.2795 6.93658 30.7522 7.03416C32.4166 7.14444 33.3213 8.01015 33.1696 9.93633C33.1593 10.092 33.0616 11.204 33.0434 11.4794C32.9799 12.4373 32.9874 13.2315 33.069 13.8142L31.8717 13.7348C31.8404 13.4802 31.8172 13.2862 31.8202 12.8776C31.3942 13.4988 30.64 13.8096 29.5983 13.7405C28.2932 13.6541 27.347 12.8698 27.4247 11.6964ZM31.9191 10.6592C29.9068 10.7183 28.8349 10.9239 28.7793 11.7621C28.7405 12.3488 29.1828 12.7509 29.9372 12.8009C30.9669 12.8691 31.8033 12.4074 31.8882 11.1262L31.9191 10.6592ZM40.3235 5.57576C43.0775 5.75823 45.0472 6.88693 44.8258 10.2276C44.6037 13.5802 42.5023 14.4392 39.7483 14.2567L37.3775 14.0996L37.9527 5.41868L40.3235 5.57576ZM40.1891 6.69733L39.2432 6.63465L38.8171 13.0646L39.763 13.1272C41.4992 13.2423 43.2233 12.9957 43.4129 10.134C43.6017 7.28423 41.9253 6.81236 40.1891 6.69733ZM50.5242 13.0706L51.7815 13.1539C51.4115 14.1997 50.3886 15.1181 48.7482 15.0094C46.6647 14.8713 45.64 13.2761 45.7637 11.4082C45.8962 9.40858 47.3253 8.16835 49.1573 8.28973C51.145 8.42143 52.1985 10.1268 51.928 12.2135L47.0187 11.8882C47.0599 13.0815 47.7651 13.8739 48.7709 13.9405C49.6689 14 50.2204 13.6638 50.5242 13.0706ZM47.1077 10.908L50.6999 11.146C50.7274 10.1857 50.1077 9.37494 49.0779 9.30671C48.108 9.24244 47.3563 9.69774 47.1077 10.908ZM56.9568 10.7307C56.8209 10.0603 56.2875 9.76035 55.5571 9.71195C54.9465 9.67149 54.2712 9.87931 54.2363 10.4062C54.2046 10.8851 54.5024 11.1093 55.0812 11.2679L55.9913 11.5086C57.1967 11.829 58.2346 12.3187 58.1513 13.5759C58.0649 14.8811 56.7943 15.5425 55.3096 15.4441C53.6812 15.3362 52.75 14.3245 52.6745 13.1048L53.9437 13.1889C54.063 13.9304 54.5133 14.3932 55.4114 14.4527C56.2136 14.5058 56.8585 14.2118 56.8965 13.6371C56.9362 13.0384 56.3893 12.7616 55.7275 12.5855L54.7703 12.3297C53.8131 12.0738 52.9317 11.5825 53.0118 10.3731C53.0872 9.23562 54.3306 8.62048 55.7435 8.71409C57.0367 8.79978 58.0332 9.5513 58.1901 10.8124L56.9568 10.7307ZM65.0184 11.6497L63.7731 11.5672C63.6898 10.8281 63.0646 10.2815 62.2504 10.2276C61.3523 10.1681 60.4793 10.8198 60.3754 12.3884C60.2699 13.9809 61.0604 14.7548 61.9465 14.8135C62.7368 14.8659 63.4622 14.4449 63.6806 13.6897L64.9378 13.773C64.5967 15.1094 63.2768 15.972 61.8519 15.8776C59.996 15.7546 58.917 14.252 59.0455 12.3123C59.1725 10.3965 60.477 9.03975 62.3808 9.1659C63.8536 9.26348 64.9101 10.3798 65.0184 11.6497ZM69.659 11.0552C69.4331 11.0162 69.2183 10.9899 69.0148 10.9765C68.0569 10.913 67.523 11.3466 67.4334 12.6997L67.2097 16.0763L65.9644 15.9938L66.3912 9.55188L67.6125 9.63281L67.5372 10.7703C67.9208 10.0621 68.5952 9.68589 69.3982 9.72707C69.506 9.73421 69.6377 9.74294 69.7447 9.76205L69.659 11.0552ZM72.123 7.68274L72.0317 9.05972L70.7865 8.97721L70.8777 7.60023L72.123 7.68274ZM71.9746 9.92183L71.5478 16.3637L70.3025 16.2812L70.7294 9.83932L71.9746 9.92183ZM74.8979 10.1155L74.8352 11.0614C75.274 10.4291 75.9715 10.0664 76.9174 10.1291C78.4141 10.2282 79.612 11.5704 79.4732 13.6658C79.3336 15.7732 77.9691 16.9455 76.4724 16.8463C75.5264 16.7837 74.8829 16.3321 74.5314 15.6474L74.3322 18.6528L73.087 18.5703L73.6526 10.033L74.8979 10.1155ZM76.254 15.7856C77.2837 15.8538 78.0481 15.0265 78.1441 13.5777C78.2401 12.1289 77.5908 11.22 76.561 11.1517C75.6031 11.0883 74.7413 11.7528 74.6358 13.3453C74.5303 14.9378 75.2961 15.7221 76.254 15.7856ZM81.2867 8.8792L82.532 8.96171L82.4225 10.6141L83.6917 10.6982L83.629 11.6441L82.3598 11.56L82.1162 15.236C82.0726 15.8945 82.1693 16.0693 82.7919 16.1105L83.3187 16.1454L83.2529 17.1393L82.3429 17.079C81.0377 16.9925 80.7718 16.6502 80.8599 15.3211L81.1145 11.4775L80.1327 11.4124L80.1954 10.4665L81.1772 10.5316L81.2867 8.8792ZM86.412 8.6295L86.3207 10.0065L85.0755 9.92398L85.1667 8.54699L86.412 8.6295ZM86.2636 10.8686L85.8368 17.3105L84.5915 17.228L85.0183 10.7861L86.2636 10.8686ZM93.5578 14.611C93.4039 16.9339 91.7312 17.8574 90.1986 17.7558C88.6779 17.6551 87.1416 16.519 87.2956 14.1961C87.4503 11.8612 89.123 10.9378 90.6436 11.0385C92.1763 11.1401 93.7125 12.2761 93.5578 14.611ZM90.2684 16.7021C91.2143 16.7648 92.1368 16.0923 92.2407 14.5238C92.347 12.9193 91.5198 12.1549 90.5738 12.0922C89.6399 12.0304 88.7206 12.6549 88.6127 14.2834C88.5072 15.8759 89.3344 16.6402 90.2684 16.7021ZM96.1993 12.465C96.6126 11.855 97.2869 11.4787 98.2927 11.5454C99.8493 11.6485 100.381 12.694 100.282 14.1907L100.013 18.2498L98.768 18.1673L99.0147 14.4434C99.0766 13.5095 98.978 12.6371 97.8046 12.5593C96.727 12.4879 96.1486 13.2313 96.0637 14.5125L95.8344 17.9729L94.5891 17.8904L95.0159 11.4485L96.2612 11.531L96.1993 12.465Z" fill="white"/>
</g>
<rect x="4.76562" y="19.9563" width="242" height="72" rx="6" transform="rotate(3.79078 4.76562 19.9563)" fill="white"/>
<rect x="4.76562" y="19.9563" width="242" height="72" rx="6" transform="rotate(3.79078 4.76562 19.9563)" fill="#ACBDD3" fill-opacity="0.25"/>
<path d="M18.6593 34.3707L15.8694 34.1858L15.9464 33.0243L22.8792 33.4837L22.8022 34.6452L20.0243 34.4611L19.5261 41.9806L18.1611 41.8902L18.6593 34.3707ZM25.8584 35.93L27.1516 36.0157L28.0395 40.7648L29.4505 36.168L30.8036 36.2577L28.5807 42.5806L27.4192 42.5036L26.3962 37.4329L24.7491 42.3267L23.5757 42.2489L22.2184 35.6888L23.5714 35.7785L24.3516 40.5204L25.8584 35.93ZM35.7428 41.1549L37 41.2382C36.6301 42.2841 35.6071 43.2025 33.9667 43.0938C31.8833 42.9557 30.8585 41.3605 30.9823 39.4926C31.1147 37.493 32.5439 36.2527 34.3758 36.3741C36.3635 36.5058 37.417 38.2112 37.1465 40.2979L32.2373 39.9726C32.2785 41.1659 32.9836 41.9583 33.9894 42.0249C34.8874 42.0844 35.4389 41.7481 35.7428 41.1549ZM32.3263 38.9923L35.9184 39.2303C35.9459 38.2701 35.3262 37.4593 34.2964 37.3911C33.3266 37.3268 32.5748 37.7821 32.3263 38.9923ZM42.7703 41.6206L44.0276 41.7039C43.6576 42.7497 42.6347 43.6681 40.9943 43.5594C38.9108 43.4213 37.886 41.8261 38.0098 39.9582C38.1423 37.9586 39.5714 36.7184 41.4034 36.8397C43.3911 36.9714 44.4446 38.6768 44.1741 40.7635L39.2648 40.4382C39.306 41.6316 40.0112 42.4239 41.017 42.4906C41.915 42.5501 42.4664 42.2138 42.7703 41.6206ZM39.3538 39.458L42.9459 39.696C42.9735 38.7357 42.3537 37.9249 41.324 37.8567C40.3541 37.7925 39.6024 38.2478 39.3538 39.458ZM47.0282 35.0838L46.6974 40.0768L49.4422 37.4926L50.9629 37.5934L48.2842 40.0858L50.7157 44.0472L49.2309 43.9488L47.3746 40.9275L46.5926 41.6574L46.453 43.7647L45.2077 43.6822L45.7829 35.0013L47.0282 35.0838ZM56.0436 35.6811L55.9523 37.0581L54.7071 36.9756L54.7983 35.5986L56.0436 35.6811ZM55.8952 37.9202L55.4684 44.3621L54.2231 44.2796L54.6499 37.8377L55.8952 37.9202ZM61.1182 40.0702C60.9822 39.3998 60.4489 39.0998 59.7185 39.0515C59.1078 39.011 58.4326 39.2188 58.3977 39.7457C58.366 40.2246 58.6638 40.4488 59.2426 40.6074L60.1526 40.8481C61.3581 41.1685 62.396 41.6582 62.3127 42.9154C62.2262 44.2206 60.9557 44.882 59.471 44.7836C57.8425 44.6757 56.9114 43.664 56.8359 42.4443L58.1051 42.5284C58.2243 43.2699 58.6747 43.7327 59.5727 43.7922C60.375 43.8453 61.0198 43.5513 61.0579 42.9766C61.0976 42.3779 60.5507 42.1011 59.8889 41.925L58.9317 41.6692C57.9745 41.4133 57.0931 40.922 57.1732 39.7126C57.2486 38.5751 58.492 37.96 59.9049 38.0536C61.198 38.1393 62.1945 38.8908 62.3515 40.1519L61.1182 40.0702ZM65.9755 43.3145C66.0794 41.7459 67.9512 41.449 70.4711 41.3514L70.4799 41.2197C70.5552 40.0822 69.9819 39.6593 69.1917 39.607C68.3296 39.5499 67.8093 39.9604 67.709 40.7474L66.4518 40.6641C66.65 39.3063 67.8303 38.5547 69.303 38.6522C70.9674 38.7625 71.8721 39.6282 71.7204 41.5544C71.7101 41.7101 71.6124 42.822 71.5942 43.0974C71.5307 44.0553 71.5382 44.8496 71.6198 45.4323L70.4225 45.3529C70.3912 45.0983 70.368 44.9043 70.371 44.4956C69.945 45.1168 69.1908 45.4277 68.1491 45.3586C66.844 45.2722 65.8978 44.4879 65.9755 43.3145ZM70.4699 42.2773C68.4576 42.3364 67.3857 42.542 67.3301 43.3802C67.2913 43.9669 67.7336 44.369 68.488 44.419C69.5177 44.4872 70.3541 44.0255 70.439 42.7443L70.4699 42.2773ZM76.5035 37.0368L82.3467 37.4239L82.2698 38.5854L77.7916 38.2887L77.6273 40.7672L81.8421 41.0465L81.7659 42.196L77.5512 41.9167L77.2933 45.8082L75.9283 45.7177L76.5035 37.0368ZM86.4244 42.7331C86.244 42.7332 86.0524 42.7205 85.8608 42.7078L84.3641 42.6086L84.1221 46.2606L82.7571 46.1702L83.3323 37.4892L86.0863 37.6717C88.4211 37.8264 89.7895 38.4101 89.6563 40.4217C89.5737 41.667 88.9283 42.3338 87.8284 42.5977L89.5702 46.6216L88.0375 46.5201L86.4244 42.7331ZM84.6227 38.7052L84.4379 41.4951L86.0064 41.599C87.2876 41.6839 88.1744 41.5502 88.2537 40.3529C88.3362 39.1076 87.4006 38.8893 86.1673 38.8075L84.6227 38.7052ZM91.459 38.0277L97.4698 38.426L97.3929 39.5874L92.7471 39.2796L92.5828 41.7581L96.9652 42.0485L96.8891 43.198L92.5067 42.9076L92.3258 45.6376L96.9716 45.9455L96.8946 47.1069L90.8838 46.7087L91.459 38.0277ZM98.814 38.515L104.825 38.9133L104.748 40.0747L100.102 39.7669L99.9378 42.2455L104.32 42.5358L104.244 43.6853L99.8616 43.395L99.6808 46.125L104.327 46.4328L104.25 47.5942L98.2388 47.196L98.814 38.515ZM109.952 41.502L109.89 42.4479C110.329 41.8155 111.026 41.4528 111.972 41.5155C113.469 41.6147 114.667 42.9568 114.528 45.0522C114.388 47.1596 113.024 48.3319 111.527 48.2328C110.581 48.1701 109.937 47.7186 109.586 47.0338L109.387 50.0392L108.142 49.9567L108.707 41.4194L109.952 41.502ZM111.309 47.172C112.338 47.2402 113.103 46.413 113.199 44.9641C113.295 43.5153 112.645 42.6064 111.616 42.5382C110.658 42.4747 109.796 43.1392 109.69 44.7317C109.585 46.3242 110.351 47.1085 111.309 47.172ZM120.179 46.7495L121.436 46.8328C121.066 47.8787 120.043 48.797 118.403 48.6883C116.319 48.5503 115.294 46.9551 115.418 45.0872C115.551 43.0875 116.98 41.8473 118.812 41.9687C120.799 42.1004 121.853 43.8058 121.582 45.8925L116.673 45.5672C116.714 46.7605 117.42 47.5529 118.425 47.6195C119.323 47.679 119.875 47.3427 120.179 46.7495ZM116.762 44.5869L120.354 44.8249C120.382 43.8646 119.762 43.0539 118.732 42.9857C117.763 42.9214 117.011 43.3767 116.762 44.5869ZM126.311 43.8726C126.085 43.8336 125.87 43.8074 125.667 43.7939C124.709 43.7304 124.175 44.1641 124.085 45.5171L123.861 48.8937L122.616 48.8112L123.043 42.3693L124.264 42.4502L124.189 43.5877C124.573 42.8796 125.247 42.5033 126.05 42.5445C126.158 42.5516 126.289 42.5604 126.396 42.5795L126.311 43.8726ZM130.868 44.6917C130.732 44.0212 130.198 43.7213 129.468 43.6729C128.857 43.6325 128.182 43.8403 128.147 44.3671C128.115 44.8461 128.413 45.0703 128.992 45.2289L129.902 45.4696C131.108 45.79 132.145 46.2797 132.062 47.5369C131.976 48.842 130.705 49.5035 129.22 49.4051C127.592 49.2972 126.661 48.2854 126.585 47.0658L127.854 47.1499C127.974 47.8914 128.424 48.3542 129.322 48.4137C130.124 48.4668 130.769 48.1728 130.807 47.5981C130.847 46.9994 130.3 46.7226 129.638 46.5465L128.681 46.2906C127.724 46.0348 126.842 45.5434 126.923 44.3341C126.998 43.1966 128.241 42.5815 129.654 42.6751C130.947 42.7608 131.944 43.5123 132.101 44.7734L130.868 44.6917ZM139.23 46.7009C139.076 49.0239 137.403 49.9473 135.87 49.8457C134.35 49.745 132.814 48.6089 132.967 46.286C133.122 43.9511 134.795 43.0277 136.316 43.1285C137.848 43.23 139.384 44.3661 139.23 46.7009ZM135.94 48.792C136.886 48.8547 137.809 48.1822 137.913 46.6137C138.019 45.0092 137.192 44.2448 136.246 44.1822C135.312 44.1203 134.392 44.7449 134.285 46.3733C134.179 47.9658 135.006 48.7302 135.94 48.792ZM141.871 44.5549C142.284 43.9449 142.959 43.5686 143.965 43.6353C145.521 43.7384 146.053 44.7839 145.954 46.2806L145.685 50.3397L144.44 50.2572L144.687 46.5334C144.748 45.5994 144.65 44.727 143.477 44.6492C142.399 44.5778 141.82 45.3212 141.736 46.6024L141.506 50.0628L140.261 49.9803L140.688 43.5384L141.933 43.6209L141.871 44.5549ZM146.974 48.6813C147.078 47.1127 148.949 46.8158 151.469 46.7182L151.478 46.5865C151.553 45.449 150.98 45.0261 150.19 44.9738C149.328 44.9167 148.807 45.3272 148.707 46.1142L147.45 46.0309C147.648 44.6731 148.828 43.9215 150.301 44.0191C151.966 44.1293 152.87 44.995 152.719 46.9212C152.708 47.0769 152.611 48.1889 152.592 48.4643C152.529 49.4221 152.536 50.2164 152.618 50.7991L151.421 50.7197C151.389 50.4651 151.366 50.2711 151.369 49.8624C150.943 50.4836 150.189 50.7945 149.147 50.7254C147.842 50.639 146.896 49.8547 146.974 48.6813ZM151.468 47.6441C149.456 47.7032 148.384 47.9088 148.328 48.747C148.289 49.3337 148.732 49.7358 149.486 49.7858C150.516 49.854 151.352 49.3923 151.437 48.1111L151.468 47.6441ZM155.246 50.9732L154 50.8907L154.576 42.2097L155.821 42.2922L155.246 50.9732ZM159.462 49.5087C159.566 47.9401 161.438 47.6432 163.958 47.5456L163.966 47.4139C164.042 46.2764 163.468 45.8536 162.678 45.8012C161.816 45.7441 161.296 46.1546 161.195 46.9417L159.938 46.8584C160.136 45.5005 161.317 44.7489 162.789 44.8465C164.454 44.9568 165.359 45.8225 165.207 47.7487C165.197 47.9043 165.099 49.0163 165.081 49.2917C165.017 50.2496 165.025 51.0438 165.106 51.6265L163.909 51.5472C163.878 51.2925 163.854 51.0986 163.857 50.6899C163.431 51.3111 162.677 51.6219 161.636 51.5529C160.33 51.4664 159.384 50.6821 159.462 49.5087ZM163.956 48.4716C161.944 48.5307 160.872 48.7362 160.817 49.5744C160.778 50.1611 161.22 50.5633 161.974 50.6132C163.004 50.6815 163.84 50.2197 163.925 48.9386L163.956 48.4716ZM168.099 46.2927C168.512 45.6827 169.186 45.3064 170.192 45.3731C171.749 45.4762 172.281 46.5217 172.182 48.0184L171.913 52.0775L170.668 51.995L170.914 48.2712C170.976 47.3372 170.878 46.4648 169.704 46.387C168.627 46.3156 168.048 47.059 167.963 48.3402L167.734 51.8006L166.489 51.7181L166.915 45.2762L168.161 45.3587L168.099 46.2927ZM178.391 43.7877L179.636 43.8702L179.061 52.5511L177.816 52.4686L177.876 51.5586C177.437 52.191 176.74 52.5537 175.794 52.491C174.297 52.3918 173.099 51.0497 173.239 48.9423C173.378 46.8469 174.742 45.6746 176.239 45.7737C177.185 45.8364 177.829 46.2879 178.18 46.9727L178.391 43.7877ZM176.457 46.8345C175.428 46.7663 174.664 47.5816 174.568 49.0304C174.472 50.4792 175.121 51.4001 176.15 51.4683C177.108 51.5318 177.971 50.8553 178.076 49.2628C178.182 47.6703 177.415 46.898 176.457 46.8345ZM187.521 48.4454C187.385 47.775 186.851 47.4751 186.121 47.4267C185.51 47.3862 184.835 47.594 184.8 48.1209C184.768 48.5998 185.066 48.824 185.645 48.9826L186.555 49.2233C187.761 49.5437 188.799 50.0334 188.715 51.2906C188.629 52.5958 187.358 53.2572 185.873 53.1589C184.245 53.051 183.314 52.0392 183.238 50.8195L184.508 50.9036C184.627 51.6451 185.077 52.1079 185.975 52.1674C186.777 52.2206 187.422 51.9266 187.46 51.3518C187.5 50.7531 186.953 50.4764 186.291 50.3002L185.334 50.0444C184.377 49.7885 183.496 49.2972 183.576 48.0878C183.651 46.9503 184.894 46.3352 186.307 46.4288C187.601 46.5145 188.597 47.266 188.754 48.5272L187.521 48.4454ZM191.45 47.8399C191.863 47.2299 192.538 46.8536 193.543 46.9203C195.1 47.0234 195.632 48.0689 195.533 49.5656L195.264 53.6247L194.019 53.5422L194.265 49.8184C194.327 48.8844 194.229 48.012 193.055 47.9342C191.978 47.8628 191.399 48.6062 191.314 49.8874L191.085 53.3478L189.84 53.2653L190.415 44.5843L191.66 44.6669L191.45 47.8399ZM196.552 51.9663C196.656 50.3977 198.528 50.1008 201.048 50.0032L201.057 49.8715C201.132 48.734 200.559 48.3111 199.769 48.2588C198.907 48.2017 198.386 48.6122 198.286 49.3993L197.029 49.316C197.227 47.9581 198.407 47.2065 199.88 47.3041C201.544 47.4143 202.449 48.28 202.297 50.2062C202.287 50.3619 202.189 51.4739 202.171 51.7493C202.108 52.7072 202.115 53.5014 202.197 54.0841L200.999 54.0047C200.968 53.7501 200.945 53.5561 200.948 53.1475C200.522 53.7686 199.768 54.0795 198.726 54.0104C197.421 53.924 196.475 53.1397 196.552 51.9663ZM201.047 50.9291C199.035 50.9882 197.963 51.1938 197.907 52.032C197.868 52.6187 198.311 53.0208 199.065 53.0708C200.095 53.139 200.931 52.6773 201.016 51.3961L201.047 50.9291ZM207.274 49.2371C207.048 49.1981 206.833 49.1718 206.63 49.1584C205.672 49.0949 205.138 49.5285 205.048 50.8816L204.824 54.2582L203.579 54.1757L204.006 47.7338L205.227 47.8147L205.152 48.9522C205.536 48.244 206.21 47.8678 207.013 47.909C207.121 47.9161 207.253 47.9248 207.359 47.944L207.274 49.2371ZM212.332 52.8555L213.589 52.9388C213.219 53.9846 212.196 54.903 210.556 54.7943C208.473 54.6562 207.448 53.061 207.572 51.1931C207.704 49.1935 209.133 47.9532 210.965 48.0746C212.953 48.2063 214.006 49.9117 213.736 51.9984L208.827 51.6731C208.868 52.8664 209.573 53.6588 210.579 53.7254C211.477 53.7849 212.028 53.4487 212.332 52.8555ZM208.916 50.6928L212.508 50.9309C212.535 49.9706 211.916 49.1598 210.886 49.0916C209.916 49.0273 209.164 49.4826 208.916 50.6928ZM219.75 46.528L220.995 46.6105L220.42 55.2915L219.174 55.209L219.235 54.299C218.796 54.9313 218.098 55.294 217.153 55.2314C215.656 55.1322 214.458 53.79 214.598 51.6827C214.736 49.5873 216.101 48.4149 217.598 48.5141C218.544 48.5768 219.187 49.0283 219.539 49.713L219.75 46.528ZM217.816 49.5748C216.786 49.5066 216.023 50.3219 215.927 51.7707C215.831 53.2196 216.479 54.1404 217.509 54.2087C218.467 54.2721 219.329 53.5957 219.435 52.0032C219.54 50.4107 218.774 49.6383 217.816 49.5748ZM15.9154 49.6467L17.1606 49.7292L17.0512 51.3815L18.3204 51.4656L18.2577 52.4116L16.9885 52.3275L16.7449 56.0034C16.7013 56.662 16.7979 56.8367 17.4206 56.878L17.9474 56.9129L17.8816 57.9067L16.9716 57.8464C15.6664 57.76 15.4005 57.4176 15.4885 56.0885L15.7432 52.245L14.7614 52.1799L14.824 51.234L15.8059 51.299L15.9154 49.6467ZM25.0878 55.1732C24.9339 57.4961 23.2612 58.4195 21.7286 58.318C20.2079 58.2172 18.6717 57.0812 18.8256 54.7582C18.9803 52.4234 20.653 51.4999 22.1737 51.6007C23.7063 51.7022 25.2426 52.8383 25.0878 55.1732ZM21.7984 57.2643C22.7443 57.327 23.6668 56.6545 23.7707 55.0859C23.877 53.4814 23.0498 52.7171 22.1038 52.6544C21.1699 52.5925 20.2506 53.2171 20.1427 54.8455C20.0372 56.438 20.8644 57.2024 21.7984 57.2643ZM33.8471 50.2455L35.0924 50.328L34.5172 59.009L33.272 58.9265L33.3322 58.0165C32.8935 58.6488 32.196 59.0115 31.25 58.9488C29.7533 58.8497 28.5554 57.5075 28.6951 55.4002C28.8339 53.3048 30.1984 52.1324 31.6951 52.2316C32.6411 52.2942 33.2846 52.7458 33.6361 53.4305L33.8471 50.2455ZM31.9135 53.2923C30.8837 53.2241 30.1202 54.0394 30.0242 55.4882C29.9282 56.937 30.5767 57.8579 31.6064 57.9262C32.5643 57.9896 33.427 57.3132 33.5325 55.7207C33.638 54.1282 32.8714 53.3558 31.9135 53.2923ZM42.2416 56.3098C42.0877 58.6327 40.415 59.5561 38.8824 59.4545C37.3617 59.3538 35.8255 58.2177 35.9794 55.8948C36.1341 53.56 37.8068 52.6365 39.3275 52.7373C40.8601 52.8388 42.3963 53.9749 42.2416 56.3098ZM38.9522 58.4009C39.8981 58.4635 40.8206 57.7911 40.9245 56.2225C41.0308 54.618 40.2036 53.8536 39.2576 53.791C38.3237 53.7291 37.4044 54.3537 37.2965 55.9821C37.191 57.5746 38.0182 58.339 38.9522 58.4009ZM47.3245 59.8576L46.0793 59.7751L46.6545 51.0941L47.8997 51.1766L47.3245 59.8576ZM50.823 51.3703L50.7318 52.7473L49.4865 52.6648L49.5777 51.2878L50.823 51.3703ZM50.6747 53.6094L50.2478 60.0513L49.0026 59.9688L49.4294 53.5269L50.6747 53.6094ZM55.8976 55.7594C55.7617 55.0889 55.2283 54.789 54.4979 54.7406C53.8873 54.7002 53.212 54.908 53.1771 55.4348C53.1454 55.9138 53.4432 56.138 54.022 56.2966L54.9321 56.5373C56.1375 56.8577 57.1754 57.3474 57.0921 58.6046C57.0057 59.9097 55.7351 60.5712 54.2504 60.4728C52.622 60.3649 51.6908 59.3531 51.6153 58.1335L52.8845 58.2176C53.0037 58.9591 53.4541 59.4219 54.3522 59.4814C55.1544 59.5345 55.7993 59.2405 55.8373 58.6658C55.877 58.0671 55.3301 57.7903 54.6683 57.6142L53.7111 57.3583C52.7539 57.1025 51.8725 56.6111 51.9526 55.4018C52.028 54.2643 53.2714 53.6492 54.6843 53.7428C55.9775 53.8285 56.974 54.58 57.1309 55.8411L55.8976 55.7594ZM59.0045 52.5017L60.2498 52.5842L60.1403 54.2366L61.4095 54.3207L61.3468 55.2666L60.0776 55.1825L59.834 58.8584C59.7904 59.517 59.8871 59.6918 60.5097 59.733L61.0365 59.7679L60.9707 60.7617L60.0607 60.7014C58.7555 60.615 58.4896 60.2726 58.5777 58.9436L58.8323 55.1L57.8505 55.0349L57.9132 54.089L58.895 54.1541L59.0045 52.5017ZM64.7306 59.2671C64.8345 57.6985 66.7063 57.4016 69.2262 57.304L69.235 57.1723C69.3103 56.0348 68.737 55.6119 67.9468 55.5596C67.0846 55.5024 66.5644 55.9129 66.4641 56.7L65.2069 56.6167C65.4051 55.2589 66.5854 54.5073 68.0581 54.6048C69.7225 54.7151 70.6272 55.5808 70.4755 57.507C70.4652 57.6627 70.3675 58.7746 70.3492 59.05C70.2858 60.0079 70.2933 60.8022 70.3749 61.3849L69.1776 61.3055C69.1463 61.0509 69.1231 60.8569 69.1261 60.4482C68.7001 61.0694 67.9459 61.3803 66.9042 61.3112C65.5991 61.2248 64.6529 60.4405 64.7306 59.2671ZM69.225 58.2299C67.2127 58.289 66.1408 58.4946 66.0852 59.3328C66.0464 59.9195 66.4887 60.3216 67.2431 60.3716C68.2728 60.4398 69.1092 59.9781 69.1941 58.6969L69.225 58.2299ZM73.4294 55.1171L73.3668 56.063C73.8055 55.4306 74.503 55.068 75.449 55.1306C76.9457 55.2298 78.1436 56.5719 78.0047 58.6673C77.8651 60.7747 76.5006 61.9471 75.0039 61.8479C74.058 61.7852 73.4144 61.3337 73.0629 60.649L72.8638 63.6544L71.6185 63.5719L72.1842 55.0346L73.4294 55.1171ZM74.7855 60.7871C75.8153 60.8554 76.5797 60.0281 76.6756 58.5793C76.7716 57.1304 76.1223 56.2215 75.0926 56.1533C74.1347 56.0898 73.2729 56.7543 73.1673 58.3468C73.0618 59.9393 73.8276 60.7237 74.7855 60.7871ZM80.7026 55.599L80.6399 56.5449C81.0787 55.9125 81.7762 55.5499 82.7221 55.6125C84.2188 55.7117 85.4167 57.0538 85.2778 59.1492C85.1382 61.2566 83.7737 62.429 82.277 62.3298C81.3311 62.2671 80.6875 61.8156 80.336 61.1309L80.1369 64.1363L78.8916 64.0538L79.4573 55.5165L80.7026 55.599ZM82.0587 61.269C83.0884 61.3373 83.8528 60.51 83.9488 59.0612C84.0448 57.6124 83.3954 56.7034 82.3657 56.6352C81.4078 56.5717 80.546 57.2362 80.4405 58.8287C80.3349 60.4212 81.1008 61.2056 82.0587 61.269ZM89.8977 54.5486L91.143 54.6311L91.0335 56.2835L92.3027 56.3676L92.24 57.3135L90.9708 57.2294L90.7272 60.9054C90.6836 61.5639 90.7803 61.7387 91.4029 61.7799L91.9297 61.8149L91.8639 62.8087L90.9539 62.7484C89.6487 62.6619 89.3828 62.3196 89.4709 60.9905L89.7255 57.1469L88.7437 57.0819L88.8064 56.1359L89.7882 56.201L89.8977 54.5486ZM99.0702 60.0751C98.9162 62.398 97.2435 63.3215 95.7109 63.2199C94.1902 63.1192 92.654 61.9831 92.8079 59.6602C92.9626 57.3253 94.6353 56.4019 96.156 56.5026C97.6886 56.6042 99.2249 57.7402 99.0702 60.0751ZM95.7807 62.1662C96.7266 62.2289 97.6491 61.5564 97.753 59.9879C97.8594 58.3834 97.0321 57.619 96.0862 57.5563C95.1522 57.4944 94.2329 58.119 94.125 59.7475C94.0195 61.34 94.8468 62.1043 95.7807 62.1662ZM108.951 60.7298C108.797 63.0527 107.124 63.9761 105.592 63.8746C104.071 63.7738 102.535 62.6378 102.689 60.3149C102.843 57.98 104.516 57.0566 106.037 57.1573C107.569 57.2589 109.106 58.3949 108.951 60.7298ZM105.661 62.8209C106.607 62.8836 107.53 62.2111 107.634 60.6425C107.74 59.038 106.913 58.2737 105.967 58.211C105.033 58.1491 104.114 58.7737 104.006 60.4021C103.9 61.9946 104.727 62.759 105.661 62.8209ZM113.677 59.0706C113.451 59.0316 113.236 59.0053 113.033 58.9919C112.075 58.9284 111.541 59.362 111.451 60.7151L111.227 64.0917L109.982 64.0092L110.409 57.5673L111.63 57.6482L111.555 58.7857C111.939 58.0775 112.613 57.7013 113.416 57.7425C113.524 57.7496 113.655 57.7583 113.762 57.7774L113.677 59.0706ZM118.917 58.131L120.162 58.2135L119.785 63.901C119.707 65.0864 119.413 65.7044 118.941 66.1181C118.416 66.6004 117.62 66.8123 116.638 66.7472C115.201 66.652 114.189 65.9595 114.075 64.593L115.356 64.6779C115.449 65.2734 115.797 65.6452 116.731 65.7071C117.342 65.7475 117.772 65.6077 118.055 65.3258C118.325 65.067 118.479 64.7405 118.522 64.0819L118.568 63.3994C118.129 64.0318 117.455 64.3961 116.509 64.3334C115.013 64.2342 113.846 62.9663 113.982 60.9188C114.117 58.8833 115.44 57.7804 116.937 57.8796C117.883 57.9422 118.503 58.3922 118.854 59.0769L118.917 58.131ZM117.156 58.9283C116.126 58.8601 115.402 59.6299 115.311 61.0069C115.218 62.4078 115.835 63.2665 116.864 63.3347C117.822 63.3981 118.657 62.78 118.759 61.2354C118.861 59.7027 118.114 58.9918 117.156 58.9283ZM121.126 63.0037C121.23 61.4352 123.102 61.1383 125.622 61.0407L125.631 60.909C125.706 59.7715 125.133 59.3486 124.343 59.2963C123.481 59.2391 122.96 59.6496 122.86 60.4367L121.603 60.3534C121.801 58.9956 122.981 58.244 124.454 58.3415C126.118 58.4518 127.023 59.3175 126.871 61.2437C126.861 61.3994 126.763 62.5113 126.745 62.7867C126.682 63.7446 126.689 64.5389 126.771 65.1215L125.573 65.0422C125.542 64.7876 125.519 64.5936 125.522 64.1849C125.096 64.8061 124.342 65.1169 123.3 65.0479C121.995 64.9614 121.049 64.1772 121.126 63.0037ZM125.621 61.9666C123.609 62.0257 122.537 62.2313 122.481 63.0694C122.442 63.6562 122.885 64.0583 123.639 64.1083C124.669 64.1765 125.505 63.7148 125.59 62.4336L125.621 61.9666ZM129.763 59.7877C130.177 59.1777 130.851 58.8015 131.857 58.8681C133.413 58.9713 133.945 60.0167 133.846 61.5134L133.577 65.5725L132.332 65.49L132.579 61.7662C132.641 60.8322 132.542 59.9598 131.369 59.8821C130.291 59.8107 129.713 60.554 129.628 61.8352L129.398 65.2957L128.153 65.2131L128.58 58.7713L129.825 58.8538L129.763 59.7877ZM136.954 57.0772L136.863 58.4542L135.618 58.3717L135.709 56.9947L136.954 57.0772ZM136.806 59.3163L136.379 65.7582L135.134 65.6757L135.561 59.2338L136.806 59.3163ZM137.646 64.8199L141.53 60.6515L138.177 60.4294L138.245 59.4116L143.106 59.7337L143.039 60.7515L139.154 64.9198L142.818 65.1626L142.751 66.1804L137.578 65.8376L137.646 64.8199ZM148.471 64.6592L149.728 64.7425C149.358 65.7883 148.335 66.7067 146.695 66.598C144.611 66.46 143.586 64.8647 143.71 62.9968C143.843 60.9972 145.272 59.757 147.104 59.8784C149.091 60.01 150.145 61.7154 149.874 63.8021L144.965 63.4768C145.006 64.6702 145.711 65.4625 146.717 65.5292C147.615 65.5887 148.167 65.2524 148.471 64.6592ZM145.054 62.4966L148.646 62.7346C148.674 61.7743 148.054 60.9636 147.024 60.8953C146.054 60.8311 145.303 61.2864 145.054 62.4966ZM153.252 68.9808L153.318 67.9869L153.809 68.0195C154.48 68.0639 154.77 68.035 155.142 67.1337L155.2 66.9932L153.303 60.4094L154.68 60.5006L155.918 65.4052L157.757 60.7045L159.05 60.7902L156.339 67.225C155.711 68.7108 155.3 69.1164 153.851 69.0204L153.252 68.9808ZM165.393 64.4696C165.24 66.7925 163.567 67.7159 162.034 67.6144C160.514 67.5136 158.977 66.3776 159.131 64.0547C159.286 61.7198 160.959 60.7964 162.479 60.8971C164.012 60.9987 165.548 62.1347 165.393 64.4696ZM162.104 66.5607C163.05 66.6234 163.972 65.9509 164.076 64.3823C164.183 62.7778 163.355 62.0135 162.409 61.9508C161.476 61.8889 160.556 62.5135 160.448 64.1419C160.343 65.7344 161.17 66.4988 162.104 66.5607ZM170.46 67.1023C170.046 67.7243 169.396 68.1022 168.426 68.0379C166.905 67.9371 166.381 66.9523 166.484 65.3958L166.756 61.3007L168.001 61.3832L167.752 65.143C167.69 66.0769 167.789 66.9374 168.915 67.012C169.957 67.081 170.523 66.3368 170.607 65.0676L170.839 61.5713L172.084 61.6538L171.657 68.0957L170.4 68.0123L170.46 67.1023ZM177.018 63.2675C176.792 63.2285 176.578 63.2022 176.374 63.1888C175.416 63.1253 174.882 63.5589 174.793 64.912L174.569 68.2886L173.324 68.2061L173.751 61.7642L174.972 61.8451L174.896 62.9826C175.28 62.2744 175.954 61.8982 176.758 61.9394C176.865 61.9465 176.997 61.9552 177.104 61.9744L177.018 63.2675ZM181.256 60.6019L182.501 60.6844L182.392 62.3367L183.661 62.4208L183.598 63.3668L182.329 63.2827L182.086 66.9586C182.042 67.6172 182.139 67.7919 182.761 67.8332L183.288 67.8681L183.222 68.8619L182.312 68.8016C181.007 68.7151 180.741 68.3728 180.829 67.0437L181.084 63.2002L180.102 63.1351L180.165 62.1892L181.146 62.2542L181.256 60.6019ZM184.176 67.1813C184.28 65.6127 186.151 65.3158 188.671 65.2182L188.68 65.0865C188.755 63.949 188.182 63.5262 187.392 63.4738C186.53 63.4167 186.009 63.8272 185.909 64.6143L184.652 64.531C184.85 63.1731 186.03 62.4215 187.503 62.5191C189.168 62.6294 190.072 63.4951 189.921 65.4213C189.91 65.5769 189.813 66.6889 189.794 66.9643C189.731 67.9222 189.738 68.7164 189.82 69.2991L188.623 69.2197C188.591 68.9651 188.568 68.7712 188.571 68.3625C188.145 68.9837 187.391 69.2945 186.349 69.2255C185.044 69.139 184.098 68.3547 184.176 67.1813ZM188.67 66.1442C186.658 66.2032 185.586 66.4088 185.53 67.247C185.491 67.8337 185.934 68.2358 186.688 68.2858C187.718 68.354 188.554 67.8923 188.639 66.6111L188.67 66.1442ZM195.174 64.9876C195.038 64.3172 194.505 64.0173 193.775 63.9689C193.164 63.9284 192.489 64.1362 192.454 64.6631C192.422 65.142 192.72 65.3662 193.299 65.5248L194.209 65.7655C195.414 66.0859 196.452 66.5756 196.369 67.8328C196.282 69.138 195.012 69.7994 193.527 69.701C191.899 69.5931 190.967 68.5814 190.892 67.3617L192.161 67.4458C192.28 68.1873 192.731 68.6501 193.629 68.7096C194.431 68.7628 195.076 68.4687 195.114 67.894C195.154 67.2953 194.607 67.0186 193.945 66.8424L192.988 66.5866C192.031 66.3307 191.149 65.8394 191.229 64.63C191.305 63.4925 192.548 62.8774 193.961 62.971C195.254 63.0567 196.251 63.8082 196.408 65.0694L195.174 64.9876ZM199.314 61.209L198.983 66.2021L201.728 63.6179L203.249 63.7187L200.57 66.211L203.001 70.1725L201.517 70.0741L199.66 67.0527L198.878 67.7826L198.739 69.89L197.493 69.8075L198.069 61.1265L199.314 61.209ZM207.616 65.812C207.48 65.1415 206.946 64.8416 206.216 64.7932C205.605 64.7528 204.93 64.9606 204.895 65.4874C204.864 65.9664 205.161 66.1905 205.74 66.3492L206.65 66.5899C207.856 66.9103 208.894 67.3999 208.81 68.6572C208.724 69.9623 207.453 70.6238 205.969 70.5254C204.34 70.4175 203.409 69.4057 203.333 68.1861L204.603 68.2702C204.722 69.0117 205.172 69.4745 206.07 69.534C206.873 69.5871 207.517 69.2931 207.555 68.7184C207.595 68.1197 207.048 67.8429 206.386 67.6668L205.429 67.4109C204.472 67.1551 203.591 66.6637 203.671 65.4544C203.746 64.3169 204.989 63.7017 206.402 63.7954C207.696 63.881 208.692 64.6326 208.849 65.8937L207.616 65.812ZM13.8017 71.9277C13.9056 70.3591 15.7773 70.0622 18.2973 69.9646L18.306 69.8329C18.3814 68.6954 17.8081 68.2725 17.0178 68.2202C16.1557 68.1631 15.6354 68.5736 15.5352 69.3607L14.2779 69.2774C14.4761 67.9195 15.6564 67.1679 17.1292 67.2655C18.7935 67.3757 19.6983 68.2414 19.5466 70.1676C19.5363 70.3233 19.4386 71.4353 19.4203 71.7107C19.3568 72.6686 19.3644 73.4628 19.446 74.0455L18.2486 73.9661C18.2174 73.7115 18.1942 73.5175 18.1972 73.1089C17.7712 73.73 17.017 74.0409 15.9753 73.9718C14.6701 73.8854 13.7239 73.1011 13.8017 71.9277ZM18.2961 70.8905C16.2838 70.9496 15.2118 71.1552 15.1563 71.9934C15.1174 72.5801 15.5598 72.9822 16.3141 73.0322C17.3439 73.1004 18.1802 72.6387 18.2651 71.3575L18.2961 70.8905ZM22.4386 68.7116C22.8519 68.1016 23.5262 67.7254 24.532 67.792C26.0886 67.8952 26.6206 68.9406 26.5215 70.4374L26.2525 74.4965L25.0073 74.4139L25.254 70.6901C25.3159 69.7562 25.2173 68.8837 24.0439 68.806C22.9663 68.7346 22.3879 69.478 22.303 70.7592L22.0737 74.2196L20.8284 74.1371L21.2552 67.6952L22.5005 67.7777L22.4386 68.7116ZM32.7309 66.2066L33.9761 66.2891L33.4009 74.9701L32.1557 74.8876L32.216 73.9776C31.7772 74.61 31.0797 74.9726 30.1338 74.91C28.6371 74.8108 27.4392 73.4687 27.5788 71.3613C27.7176 69.2659 29.0821 68.0935 30.5788 68.1927C31.5248 68.2554 32.1683 68.7069 32.5198 69.3916L32.7309 66.2066ZM30.7972 69.2534C29.7675 69.1852 29.0039 70.0005 28.9079 71.4493C28.8119 72.8982 29.4604 73.8191 30.4902 73.8873C31.4481 73.9508 32.3107 73.2743 32.4162 71.6818C32.5217 70.0893 31.7551 69.3169 30.7972 69.2534ZM43.6311 71.3666L42.3859 71.2841C42.3025 70.5449 41.6773 69.9984 40.8631 69.9444C39.9651 69.8849 39.0921 70.5367 38.9881 72.1052C38.8826 73.6977 39.6732 74.4717 40.5592 74.5304C41.3495 74.5828 42.0749 74.1618 42.2933 73.4066L43.5506 73.4899C43.2095 74.8263 41.8896 75.6889 40.4647 75.5945C38.6087 75.4715 37.5297 73.9689 37.6583 72.0291C37.7852 70.1133 39.0897 68.7566 40.9936 68.8828C42.4663 68.9803 43.5229 70.0966 43.6311 71.3666ZM50.6786 72.9039C50.5247 75.2268 48.852 76.1502 47.3194 76.0487C45.7987 75.9479 44.2625 74.8118 44.4164 72.4889C44.5711 70.1541 46.2438 69.2306 47.7644 69.3314C49.2971 69.4329 50.8333 70.569 50.6786 72.9039ZM47.3892 74.995C48.3351 75.0576 49.2576 74.3852 49.3615 72.8166C49.4678 71.2121 48.6406 70.4477 47.6946 70.3851C46.7607 70.3232 45.8414 70.9478 45.7335 72.5762C45.628 74.1687 46.4552 74.9331 47.3892 74.995ZM52.9552 76.2657L51.7099 76.1832L52.2851 67.5023L53.5304 67.5848L52.9552 76.2657ZM55.8785 76.4594L54.6332 76.3769L55.2084 67.6959L56.4537 67.7785L55.8785 76.4594ZM57.2884 74.809C57.3923 73.2405 59.264 72.9436 61.784 72.8459L61.7927 72.7142C61.8681 71.5767 61.2948 71.1539 60.5045 71.1015C59.6424 71.0444 59.1221 71.4549 59.0219 72.242L57.7646 72.1587C57.9628 70.8008 59.1431 70.0492 60.6159 70.1468C62.2802 70.2571 63.185 71.1228 63.0333 73.049C63.023 73.2046 62.9252 74.3166 62.907 74.592C62.8435 75.5499 62.851 76.3441 62.9327 76.9268L61.7353 76.8475C61.7041 76.5929 61.6809 76.3989 61.6839 75.9902C61.2579 76.6114 60.5037 76.9222 59.462 76.8532C58.1568 76.7667 57.2106 75.9824 57.2884 74.809ZM61.7828 73.7719C59.7704 73.831 58.6985 74.0366 58.643 74.8747C58.6041 75.4614 59.0465 75.8636 59.8008 75.9135C60.8306 75.9818 61.6669 75.5201 61.7518 74.2389L61.7828 73.7719ZM66.1356 68.42L65.9245 71.605C66.3633 70.9726 67.0608 70.6099 68.0067 70.6726C69.5034 70.7718 70.7013 72.1139 70.5625 74.2093C70.4229 76.3167 69.0584 77.489 67.5616 77.3899C66.6157 77.3272 65.9722 76.8757 65.6207 76.1909L65.5604 77.1009L64.3151 77.0184L64.8903 68.3375L66.1356 68.42ZM67.3433 76.3291C68.373 76.3973 69.1374 75.5701 69.2334 74.1212C69.3294 72.6724 68.6801 71.7635 67.6503 71.6953C66.6924 71.6318 65.8306 72.2963 65.7251 73.8888C65.6196 75.4813 66.3854 76.2656 67.3433 76.3291ZM77.7248 74.6959C77.5709 77.0188 75.8982 77.9422 74.3655 77.8407C72.8449 77.7399 71.3086 76.6039 71.4625 74.281C71.6172 71.9461 73.2899 71.0227 74.8106 71.1234C76.3432 71.225 77.8795 72.361 77.7248 74.6959ZM74.4353 76.787C75.3813 76.8497 76.3038 76.1772 76.4077 74.6086C76.514 73.0041 75.6867 72.2398 74.7408 72.1771C73.8068 72.1152 72.8875 72.7398 72.7796 74.3682C72.6741 75.9607 73.5014 76.7251 74.4353 76.787ZM82.4507 73.0367C82.2248 72.9977 82.01 72.9714 81.8065 72.9579C80.8486 72.8945 80.3147 73.3281 80.2251 74.6812L80.0014 78.0578L78.7561 77.9753L79.1829 71.5334L80.4042 71.6143L80.3289 72.7518C80.7125 72.0436 81.3869 71.6674 82.1899 71.7086C82.2977 71.7157 82.4294 71.7244 82.5364 71.7435L82.4507 73.0367ZM82.5922 76.4856C82.6962 74.9171 84.5679 74.6202 87.0879 74.5225L87.0966 74.3908C87.172 73.2533 86.5987 72.8305 85.8084 72.7781C84.9463 72.721 84.426 73.1315 84.3258 73.9186L83.0685 73.8353C83.2667 72.4774 84.447 71.7258 85.9198 71.8234C87.5841 71.9337 88.4889 72.7994 88.3372 74.7256C88.3269 74.8812 88.2291 75.9932 88.2109 76.2686C88.1474 77.2265 88.1549 78.0207 88.2366 78.6034L87.0392 78.5241C87.008 78.2695 86.9847 78.0755 86.9878 77.6668C86.5618 78.288 85.8076 78.5988 84.7659 78.5298C83.4607 78.4433 82.5145 77.659 82.5922 76.4856ZM87.0866 75.4485C85.0743 75.5076 84.0024 75.7132 83.9469 76.5513C83.908 77.138 84.3504 77.5402 85.1047 77.5901C86.1345 77.6584 86.9708 77.1967 87.0557 75.9155L87.0866 75.4485ZM90.4067 70.6174L91.652 70.6999L91.5425 72.3523L92.8117 72.4364L92.7491 73.3823L91.4799 73.2982L91.2363 76.9742C91.1927 77.6327 91.2893 77.8075 91.912 77.8488L92.4388 77.8837L92.3729 78.8775L91.4629 78.8172C90.1578 78.7307 89.8919 78.3884 89.9799 77.0593L90.2346 73.2157L89.2527 73.1507L89.3154 72.2047L90.2973 72.2698L90.4067 70.6174ZM98.0679 77.3547L99.3251 77.438C98.9552 78.4838 97.9322 79.4022 96.2918 79.2935C94.2084 79.1554 93.1836 77.5602 93.3074 75.6923C93.4398 73.6927 94.869 72.4524 96.701 72.5738C98.6886 72.7055 99.7422 74.4109 99.4716 76.4976L94.5624 76.1723C94.6036 77.3656 95.3087 78.158 96.3145 78.2246C97.2125 78.2841 97.764 77.9479 98.0679 77.3547ZM94.6514 75.1921L98.2435 75.4301C98.271 74.4698 97.6513 73.659 96.6215 73.5908C95.6517 73.5265 94.8999 73.9818 94.6514 75.1921ZM109.355 76.7916C109.201 79.1145 107.528 80.038 105.995 79.9364C104.475 79.8357 102.938 78.6996 103.092 76.3767C103.247 74.0418 104.92 73.1184 106.44 73.2192C107.973 73.3207 109.509 74.4568 109.355 76.7916ZM106.065 78.8827C107.011 78.9454 107.934 78.2729 108.038 76.7044C108.144 75.0999 107.317 74.3355 106.371 74.2728C105.437 74.211 104.517 74.8356 104.41 76.464C104.304 78.0565 105.131 78.8209 106.065 78.8827ZM111.996 74.6456C112.409 74.0356 113.084 73.6593 114.09 73.726C115.646 73.8291 116.178 74.8746 116.079 76.3713L115.81 80.4304L114.565 80.3479L114.812 76.624C114.873 75.6901 114.775 74.8177 113.601 74.7399C112.524 74.6685 111.945 75.4119 111.861 76.6931L111.631 80.1535L110.386 80.071L110.813 73.6291L112.058 73.7116L111.996 74.6456ZM120.961 72.6419L122.206 72.7244L122.097 74.3768L123.366 74.4609L123.303 75.4068L122.034 75.3227L121.79 78.9986C121.747 79.6572 121.843 79.832 122.466 79.8732L122.993 79.9081L122.927 80.9019L122.017 80.8417C120.712 80.7552 120.446 80.4128 120.534 79.0838L120.789 75.2402L119.807 75.1751L119.87 74.2292L120.851 74.2943L120.961 72.6419ZM125.876 75.5652C126.289 74.9552 126.963 74.579 127.969 74.6456C129.526 74.7488 130.058 75.7942 129.959 77.2909L129.69 81.35L128.445 81.2675L128.691 77.5437C128.753 76.6097 128.655 75.7373 127.481 75.6596C126.404 75.5882 125.825 76.3315 125.74 77.6127L125.511 81.0732L124.266 80.9906L124.841 72.3097L126.086 72.3922L125.876 75.5652ZM135.778 79.8533L137.035 79.9366C136.665 80.9824 135.642 81.9008 134.002 81.7921C131.919 81.6541 130.894 80.0588 131.018 78.1909C131.15 76.1913 132.579 74.9511 134.411 75.0725C136.399 75.2041 137.452 76.9095 137.182 78.9962L132.273 78.6709C132.314 79.8643 133.019 80.6566 134.025 80.7233C134.923 80.7828 135.474 80.4465 135.778 79.8533ZM132.362 77.6907L135.954 77.9287C135.981 76.9684 135.362 76.1577 134.332 76.0894C133.362 76.0252 132.61 76.4805 132.362 77.6907ZM139.461 81.9974L138.216 81.9149L138.642 75.4731L139.888 75.5556L139.826 76.4895C140.239 75.8795 140.877 75.5009 141.799 75.562C142.793 75.6278 143.352 76.0858 143.592 76.8233C144.184 76.0567 144.96 75.7714 145.799 75.827C147.307 75.9269 147.827 76.9716 147.728 78.4683L147.459 82.5274L146.214 82.4449L146.461 78.7211C146.523 77.7871 146.436 76.9155 145.311 76.8409C144.329 76.7759 143.774 77.5208 143.689 78.802L143.46 82.2624L142.215 82.1799L142.462 78.4561C142.523 77.5221 142.437 76.6505 141.311 76.5759C140.317 76.5101 139.775 77.2558 139.69 78.537L139.461 81.9974ZM157.881 80.0069C157.727 82.3298 156.054 83.2533 154.522 83.1517C153.001 83.0509 151.465 81.9149 151.619 79.592C151.774 77.2571 153.446 76.3337 154.967 76.4344C156.5 76.536 158.036 77.672 157.881 80.0069ZM154.592 82.098C155.538 82.1607 156.46 81.4882 156.564 79.9196C156.67 78.3152 155.843 77.5508 154.897 77.4881C153.963 77.4262 153.044 78.0508 152.936 79.6793C152.83 81.2718 153.658 82.0361 154.592 82.098ZM160.523 77.8609C160.936 77.2508 161.61 76.8746 162.616 76.9412C164.173 77.0444 164.705 78.0898 164.605 79.5866L164.336 83.6457L163.091 83.5632L163.338 79.8393C163.4 78.9054 163.301 78.0329 162.128 77.9552C161.05 77.8838 160.472 78.6272 160.387 79.9084L160.158 83.3688L158.912 83.2863L159.339 76.8444L160.584 76.9269L160.523 77.8609ZM167.138 83.8313L165.893 83.7488L166.468 75.0678L167.714 75.1504L167.138 83.8313ZM170.637 75.344L170.546 76.721L169.3 76.6385L169.392 75.2615L170.637 75.344ZM170.489 77.5831L170.062 84.025L168.816 83.9425L169.243 77.5006L170.489 77.5831ZM173.35 78.7108C173.763 78.1008 174.437 77.7245 175.443 77.7912C177 77.8943 177.532 78.9398 177.433 80.4365L177.164 84.4956L175.919 84.4131L176.165 80.6892C176.227 79.7553 176.129 78.8829 174.955 78.8051C173.878 78.7337 173.299 79.4771 173.214 80.7583L172.985 84.2187L171.74 84.1362L172.167 77.6943L173.412 77.7768L173.35 78.7108ZM183.252 82.9988L184.509 83.0821C184.139 84.128 183.117 85.0463 181.476 84.9377C179.393 84.7996 178.368 83.2044 178.492 81.3365C178.624 79.3368 180.053 78.0966 181.885 78.218C183.873 78.3497 184.926 80.0551 184.656 82.1418L179.747 81.8165C179.788 83.0098 180.493 83.8022 181.499 83.8688C182.397 83.9283 182.948 83.592 183.252 82.9988ZM179.836 80.8362L183.428 81.0742C183.455 80.114 182.836 79.3032 181.806 79.235C180.836 79.1707 180.084 79.626 179.836 80.8362ZM191.784 78.9942L193.078 79.0799L193.966 83.829L195.377 79.2322L196.73 79.3218L194.507 85.6447L193.345 85.5677L192.322 80.497L190.675 85.3908L189.502 85.3131L188.144 78.753L189.497 78.8426L190.278 83.5846L191.784 78.9942ZM199.016 77.2244L198.925 78.6014L197.68 78.5189L197.771 77.1419L199.016 77.2244ZM198.868 79.4635L198.441 85.9054L197.196 85.8229L197.622 79.381L198.868 79.4635ZM200.907 77.939L202.152 78.0215L202.042 79.6738L203.312 79.7579L203.249 80.7039L201.98 80.6198L201.736 84.2957C201.693 84.9543 201.789 85.129 202.412 85.1703L202.939 85.2052L202.873 86.199L201.963 86.1387C200.658 86.0523 200.392 85.7099 200.48 84.3808L200.734 80.5373L199.753 80.4722L199.815 79.5263L200.797 79.5913L200.907 77.939ZM205.822 80.8623C206.235 80.2523 206.909 79.8761 207.915 79.9427C209.472 80.0458 210.004 81.0913 209.905 82.588L209.636 86.6471L208.39 86.5646L208.637 82.8408C208.699 81.9068 208.6 81.0344 207.427 80.9566C206.349 80.8852 205.771 81.6286 205.686 82.9098L205.457 86.3702L204.211 86.2877L204.787 77.6068L206.032 77.6893L205.822 80.8623ZM12.5499 91.7282L12.6157 90.7344L13.1066 90.7669C13.7772 90.8114 14.0677 90.7825 14.4401 89.8812L14.4975 89.7406L12.6007 83.1568L13.9776 83.2481L15.2161 88.1527L17.0549 83.452L18.348 83.5376L15.6367 89.9725C15.0091 91.4582 14.5974 91.8639 13.1485 91.7679L12.5499 91.7282ZM24.6911 87.2171C24.5372 89.54 22.8645 90.4634 21.3318 90.3618C19.8112 90.2611 18.2749 89.125 18.4288 86.8021C18.5835 84.4672 20.2563 83.5438 21.7769 83.6446C23.3096 83.7461 24.8458 84.8822 24.6911 87.2171ZM21.4017 89.3082C22.3476 89.3708 23.2701 88.6983 23.374 87.1298C23.4803 85.5253 22.653 84.7609 21.7071 84.6983C20.7732 84.6364 19.8538 85.261 19.7459 86.8894C19.6404 88.4819 20.4677 89.2463 21.4017 89.3082ZM29.758 89.8498C29.3439 90.4718 28.6935 90.8496 27.7237 90.7854C26.203 90.6846 25.679 89.6998 25.7821 88.1432L26.0534 84.0482L27.2987 84.1307L27.0496 87.8905C26.9877 88.8244 27.087 89.6849 28.2126 89.7594C29.2543 89.8285 29.8207 89.0843 29.9048 87.8151L30.1365 84.3187L31.3818 84.4012L30.9549 90.8431L29.6977 90.7598L29.758 89.8498ZM36.3159 86.015C36.09 85.976 35.8753 85.9497 35.6717 85.9362C34.7138 85.8727 34.18 86.3064 34.0903 87.6594L33.8666 91.036L32.6213 90.9535L33.0482 84.5116L34.2695 84.5926L34.1941 85.7301C34.5778 85.0219 35.2521 84.6457 36.0552 84.6868C36.1629 84.694 36.2946 84.7027 36.4016 84.7218L36.3159 86.015ZM40.5536 83.3493L41.7989 83.4318L41.6894 85.0842L42.9586 85.1683L42.8959 86.1142L41.6267 86.0301L41.3831 89.7061C41.3395 90.3646 41.4362 90.5394 42.0588 90.5807L42.5856 90.6156L42.5198 91.6094L41.6098 91.5491C40.3046 91.4626 40.0387 91.1203 40.1268 89.7912L40.3814 85.9476L39.3996 85.8826L39.4623 84.9366L40.4441 85.0017L40.5536 83.3493ZM48.2147 90.0866L49.4719 90.1699C49.102 91.2157 48.079 92.1341 46.4386 92.0254C44.3552 91.8873 43.3304 90.2921 43.4542 88.4242C43.5867 86.4246 45.0158 85.1843 46.8478 85.3057C48.8354 85.4374 49.889 87.1428 49.6184 89.2295L44.7092 88.9042C44.7504 90.0975 45.4556 90.8899 46.4613 90.9565C47.3594 91.016 47.9108 90.6798 48.2147 90.0866ZM44.7982 87.9239L48.3903 88.162C48.4179 87.2017 47.7981 86.3909 46.7684 86.3227C45.7985 86.2584 45.0468 86.7137 44.7982 87.9239ZM50.3255 90.3828C50.4294 88.8142 52.3012 88.5173 54.8211 88.4197L54.8299 88.288C54.9052 87.1505 54.3319 86.7276 53.5417 86.6753C52.6796 86.6182 52.1593 87.0287 52.059 87.8158L50.8018 87.7324C51 86.3746 52.1803 85.623 53.653 85.7206C55.3174 85.8308 56.2221 86.6965 56.0705 88.6227C56.0601 88.7784 55.9624 89.8904 55.9442 90.1658C55.8807 91.1237 55.8882 91.9179 55.9699 92.5006L54.7725 92.4212C54.7412 92.1666 54.718 91.9726 54.721 91.5639C54.295 92.1851 53.5408 92.496 52.4991 92.4269C51.194 92.3405 50.2478 91.5562 50.3255 90.3828ZM54.8199 89.3456C52.8076 89.4047 51.7357 89.6103 51.6801 90.4485C51.6413 91.0352 52.0836 91.4373 52.838 91.4873C53.8677 91.5555 54.7041 91.0938 54.789 89.8126L54.8199 89.3456ZM58.5975 92.6747L57.3523 92.5922L57.7791 86.1503L59.0244 86.2328L58.9625 87.1667C59.3757 86.5567 60.0141 86.1781 60.9361 86.2392C61.9299 86.305 62.4889 86.763 62.7287 87.5005C63.3206 86.7339 64.0972 86.4486 64.9353 86.5042C66.444 86.6041 66.9641 87.6488 66.8649 89.1455L66.596 93.2046L65.3507 93.1221L65.5975 89.3983C65.6593 88.4643 65.5728 87.5927 64.4472 87.5181C63.4654 87.4531 62.9109 88.198 62.826 89.4792L62.5968 92.9396L61.3515 92.8571L61.5982 89.1333C61.6601 88.1993 61.5735 87.3277 60.448 87.2531C59.4542 87.1873 58.9117 87.9331 58.8268 89.2143L58.5975 92.6747ZM77.0178 90.6841C76.8639 93.007 75.1912 93.9305 73.6585 93.8289C72.1378 93.7282 70.6016 92.5921 70.7555 90.2692C70.9102 87.9343 72.5829 87.0109 74.1036 87.1116C75.6362 87.2132 77.1725 88.3493 77.0178 90.6841ZM73.7283 92.7752C74.6743 92.8379 75.5967 92.1654 75.7007 90.5969C75.807 88.9924 74.9797 88.228 74.0338 88.1653C73.0998 88.1035 72.1805 88.728 72.0726 90.3565C71.9671 91.949 72.7944 92.7133 73.7283 92.7752ZM81.7437 89.0249C81.5177 88.9859 81.303 88.9597 81.0995 88.9462C80.1416 88.8827 79.6077 89.3164 79.5181 90.6694L79.2943 94.046L78.0491 93.9635L78.4759 87.5216L79.6972 87.6025L79.6218 88.74C80.0055 88.0319 80.6799 87.6556 81.4829 87.6968C81.5907 87.7039 81.7224 87.7127 81.8293 87.7318L81.7437 89.0249ZM85.8764 87.579C85.9709 86.1541 86.4153 85.7987 87.924 85.8987L88.4868 85.936L88.4209 86.9298L87.942 86.8981C87.3074 86.856 87.1669 86.979 87.1225 87.6496L87.0932 88.0926L88.3384 88.1751L88.2757 89.121L87.0305 89.0385L86.6663 94.5345L85.4211 94.4519L85.7852 88.956L84.8872 88.8965L84.9499 87.9506L85.8479 88.0101L85.8764 87.579ZM88.4334 92.9077C88.5373 91.3392 90.409 91.0423 92.929 90.9446L92.9377 90.8129C93.0131 89.6754 92.4398 89.2526 91.6495 89.2002C90.7874 89.1431 90.2671 89.5536 90.1669 90.3407L88.9096 90.2574C89.1078 88.8995 90.2881 88.1479 91.7609 88.2455C93.4252 88.3558 94.33 89.2215 94.1783 91.1477C94.168 91.3033 94.0703 92.4153 94.052 92.6907C93.9885 93.6486 93.996 94.4428 94.0777 95.0255L92.8803 94.9462C92.8491 94.6916 92.8259 94.4976 92.8289 94.0889C92.4029 94.7101 91.6487 95.0209 90.607 94.9519C89.3018 94.8654 88.3556 94.0811 88.4334 92.9077ZM92.9278 91.8706C90.9155 91.9297 89.8435 92.1353 89.788 92.9734C89.7491 93.5601 90.1915 93.9623 90.9458 94.0122C91.9756 94.0805 92.8119 93.6188 92.8968 92.3376L92.9278 91.8706ZM96.7054 95.1996L95.4601 95.1171L95.8869 88.6752L97.1322 88.7578L97.0703 89.6917C97.4836 89.0817 98.122 88.7031 99.044 88.7642C100.038 88.83 100.597 89.288 100.836 90.0254C101.428 89.2589 102.205 88.9736 103.043 89.0291C104.552 89.1291 105.072 90.1738 104.973 91.6705L104.704 95.7296L103.459 95.6471L103.705 91.9232C103.767 90.9893 103.681 90.1177 102.555 90.0431C101.573 89.978 101.019 90.723 100.934 92.0042L100.705 95.4646L99.4593 95.3821L99.7061 91.6583C99.768 90.7243 99.6814 89.8527 98.5559 89.7781C97.562 89.7123 97.0195 90.458 96.9347 91.7392L96.7054 95.1996ZM108.097 87.2353L108.005 88.6123L106.76 88.5298L106.851 87.1528L108.097 87.2353ZM107.948 89.4744L107.522 95.9163L106.276 95.8338L106.703 89.3919L107.948 89.4744ZM110.445 96.11L109.2 96.0275L109.775 87.3465L111.02 87.429L110.445 96.11ZM111.661 98.2951L111.727 97.3013L112.217 97.3338C112.888 97.3783 113.179 97.3494 113.551 96.4481L113.608 96.3076L111.711 89.7237L113.088 89.815L114.327 94.7196L116.166 90.0189L117.459 90.1046L114.747 96.5394C114.12 98.0251 113.708 98.4308 112.259 98.3348L111.661 98.2951ZM116.364 96.5022L116.463 95.0055L117.96 95.1046L117.861 96.6014L116.364 96.5022Z" fill="#768BA7"/>
</g>
<defs>
<clipPath id="clip0_1348_156995">
<rect width="242" height="92" fill="white" transform="translate(6.08594) rotate(3.79078)"/>
</clipPath>
<clipPath id="clip1_1348_156995">
<rect width="242" height="16" fill="white" transform="translate(6.08594) rotate(3.79078)"/>
</clipPath>
</defs>
</svg>
