<svg width="32" height="32" viewBox="0 0 32 32" fill="none" xmlns="http://www.w3.org/2000/svg">
<path d="M21.1719 3.75176L13.2848 29.1263C13.0504 29.8294 12.2887 30.2396 11.5269 30.0052C10.8238 29.7708 10.4137 29.0091 10.648 28.2474L18.5352 2.87285C18.7695 2.16972 19.5313 1.75957 20.293 1.99394C20.9961 2.22832 21.4063 2.99004 21.1719 3.75176ZM9.11972 10.7749L3.45703 16.0274L9.11972 21.3385C9.70566 21.8659 9.70566 22.7448 9.17832 23.3307C8.65097 23.9167 7.77207 23.9167 7.18613 23.3893L0.410156 17.0821C0.117188 16.7891 0 16.4376 0 16.0274C0 15.6758 0.117188 15.2657 0.410156 15.0313L7.18613 8.72409C7.77207 8.19674 8.65097 8.19674 9.17832 8.78268C9.70566 9.36862 9.70566 10.2475 9.11972 10.7749Z" fill="white"/>
<path d="M28.4767 16.086L22.814 21.3385C22.2281 21.8659 22.2281 22.7448 22.7554 23.3307C23.2828 23.9167 24.1617 23.9167 24.7476 23.3893L31.5236 17.0821C31.8165 16.8477 31.9337 16.4376 31.9337 16.086C31.9337 15.6759 31.8165 15.3243 31.5236 15.0313L24.7476 8.72411C24.1617 8.19676 23.2828 8.19676 22.7554 8.7827C22.2281 9.36864 22.2281 10.2475 22.814 10.7749L28.4767 16.086Z" fill="white"/>
</svg>
