<svg width="63" height="63" viewBox="0 0 63 63" fill="none" xmlns="http://www.w3.org/2000/svg">
<rect y="6.82471" width="56" height="56" rx="10" transform="rotate(-7 0 6.82471)" fill="#383436"/>
<g clip-path="url(#clip0_936_101927)">
<path d="M26.8712 52.6218C30.6572 52.1569 33.3526 48.707 32.8878 44.921L32.0456 38.0623L25.1869 38.9044C21.4008 39.3693 18.7054 42.8193 19.1703 46.6053C19.6351 50.3913 23.0851 53.0867 26.8712 52.6218Z" fill="#0ACF83"/>
<path d="M17.4828 32.8877C17.0179 29.1017 19.7133 25.6518 23.4994 25.1869L30.3581 24.3448L32.0424 38.0621L25.1837 38.9043C21.3976 39.3692 17.9476 36.6737 17.4828 32.8877Z" fill="#A259FF"/>
<path d="M15.7953 19.1705C15.3304 15.3845 18.0258 11.9345 21.8119 11.4696L28.6706 10.6275L30.3549 24.3449L23.4962 25.1871C19.7101 25.652 16.2601 22.9565 15.7953 19.1705Z" fill="#F24E1E"/>
<path d="M28.6719 10.6274L35.5307 9.78529C39.3167 9.32042 42.7668 12.0158 43.2316 15.8019C43.6965 19.5879 41.001 23.0379 37.215 23.5028L30.3562 24.3449L28.6719 10.6274Z" fill="#FF7262"/>
<path d="M44.9191 29.5194C45.384 33.3054 42.6885 36.7553 38.9025 37.2202C35.1164 37.6851 31.6664 34.9897 31.2015 31.2037C30.7367 27.4177 33.4321 23.9677 37.2182 23.5028C41.0042 23.0379 44.4543 25.7334 44.9191 29.5194Z" fill="#1ABCFE"/>
</g>
<defs>
<clipPath id="clip0_936_101927">
<rect width="27.6466" height="41.4615" fill="white" transform="translate(14.9531 12.312) rotate(-7)"/>
</clipPath>
</defs>
</svg>
