<svg width="77" height="38" viewBox="0 0 77 38" fill="none" xmlns="http://www.w3.org/2000/svg">
<path d="M15.8852 18.4617C17.0418 17.5981 17.9575 16.2705 17.9461 14.2863V14.2312C17.9513 12.5524 17.2571 11.1125 16.0207 10.1428C14.7868 9.16901 13.0498 8.65198 10.9559 8.65198H1.3125V29.3488H11.182C13.472 29.3477 15.4135 28.8899 16.8204 27.9099C18.2314 26.9325 19.0554 25.3932 19.0461 23.46V23.4034C19.0724 20.9063 17.7973 19.3851 15.8852 18.4617ZM12.6867 15.0196C12.6738 15.6242 12.4776 15.9409 12.061 16.2154C11.6398 16.4832 10.9348 16.6402 10.0243 16.6387H6.48695V13.4021H10.306C11.1629 13.4005 11.7793 13.5792 12.1465 13.8434C12.5085 14.1117 12.6785 14.4351 12.6867 14.963V15.0196ZM6.48798 21.1921H11.0403C12.1007 21.1905 12.8108 21.394 13.214 21.6808C13.6132 21.9707 13.7785 22.3173 13.7872 22.8673V22.9234C13.7764 23.5347 13.5812 23.873 13.1785 24.1547C12.7701 24.4313 12.0878 24.6002 11.182 24.5976H6.48798V21.1921Z" fill="white"/>
<path d="M33.104 18.4615C34.2611 17.5978 35.1762 16.2702 35.1644 14.2861V14.231C35.1695 12.5521 34.4753 11.1123 33.2394 10.1426C32.0055 9.16877 30.2685 8.65173 28.1741 8.65173H18.5312V29.3485H28.4002C30.6913 29.3475 32.6328 28.8897 34.0397 27.9097C35.4497 26.9323 36.2747 25.393 36.2638 23.4598V23.4031C36.2916 20.906 35.015 19.3848 33.104 18.4615ZM29.9049 15.0194C29.8931 15.624 29.6969 15.9407 29.2793 16.2151C28.857 16.4829 28.1535 16.64 27.2436 16.6369H23.7052V13.4018H27.5258C28.3811 13.4003 28.9991 13.579 29.3647 13.8432C29.7268 14.1115 29.8957 14.4349 29.9049 14.9627V15.0194ZM31.006 22.8671V22.9232C30.9951 23.5345 30.8 23.8728 30.3957 24.1545C29.9879 24.431 29.306 24.5999 28.3997 24.5974H23.7047V21.1918H28.2591C29.3184 21.1903 30.0291 21.3937 30.4323 21.6806C30.8304 21.9705 30.9972 22.3171 31.006 22.8671Z" fill="white"/>
<path d="M51.8353 11.6072C49.8943 9.75738 47.1449 8.65122 43.9325 8.65173H35.7578V29.3495H43.9382C47.1495 29.3495 49.8974 28.2269 51.8368 26.3632C53.7788 24.5021 54.9045 21.9025 54.9035 19.0001V18.9445C54.9045 16.0431 53.7783 13.4564 51.8353 11.6072ZM49.418 19.0006V19.0568C49.3917 22.3289 47.2675 24.4578 43.933 24.4851H41.0456V13.5157H43.9325C47.2603 13.5404 49.3928 15.7259 49.418 19.0006Z" fill="white"/>
<path d="M72.8042 11.4224C70.8602 9.49642 68.1175 8.31096 64.9509 8.3125C61.7859 8.31096 59.0277 9.51084 57.0703 11.4513C55.1128 13.3896 53.9531 16.0675 53.9531 19.0003V19.0564C53.9521 21.9876 55.0979 24.6526 57.0419 26.5776C58.9849 28.5031 61.7297 29.6885 64.8948 29.6875H64.8994C68.0644 29.6875 70.8206 28.4876 72.7759 26.5493C74.7333 24.6099 75.8941 21.9325 75.893 18.9997V18.9446C75.8941 16.0129 74.7483 13.3484 72.8042 11.4224ZM59.4381 18.9441C59.4536 15.7791 61.6633 13.2681 64.8953 13.2609C68.1236 13.265 70.3978 15.8409 70.4086 18.9992V19.0554C70.3947 22.2194 68.1839 24.7304 64.9509 24.7371C61.7236 24.7329 59.4489 22.1576 59.4381 18.9987V18.9441Z" fill="white"/>
</svg>
