<svg width="138" height="38" viewBox="0 0 138 38" fill="none" xmlns="http://www.w3.org/2000/svg">
<g clip-path="url(#clip0_875_97883)">
<path d="M11.4041 15.1601C12.5623 13.2824 14.1252 12.3154 16.3628 12.3154C19.7472 12.3154 22.041 14.8678 22.041 18.4547V29.1703H17.6896V19.0843C17.6896 17.319 16.6776 16.0709 14.8448 16.0709C12.9333 16.0709 11.5166 17.6114 11.5166 19.8377V29.1703H7.17635V12.7539H11.4379C11.4041 12.7539 11.4041 14.7216 11.4041 15.1601ZM109.599 15.1601C110.757 13.2824 112.32 12.3154 114.557 12.3154C117.942 12.3154 120.236 14.8678 120.236 18.4547V29.1703H115.884V19.0843C115.884 17.319 114.872 16.0709 113.039 16.0709C111.128 16.0709 109.711 17.6114 109.711 19.8377V29.1703H105.36V12.7539H109.621C109.599 12.7539 109.599 14.7216 109.599 15.1601ZM32.8466 20.9508C32.8466 16.0822 36.1186 12.3154 41.1335 12.3154C46.0247 12.3154 48.9594 15.8235 48.9031 21.0071C48.9031 21.4456 48.9031 21.7942 48.8694 22.2214H37.1306C37.4454 24.7401 38.6373 26.303 41.0997 26.303C42.4603 26.303 43.7309 25.6059 44.3718 24.3016H48.5771C47.9699 27.225 45.3275 29.6875 41.0997 29.6875C35.6801 29.6763 32.8466 25.842 32.8466 20.9508ZM37.2205 19.1855H44.5854C44.473 17.0941 43.1124 15.6549 41.1335 15.6549C38.8397 15.6774 37.5354 17.2178 37.2205 19.1855ZM83.0627 15.5649L83.1526 15.3625C84.1421 13.5073 85.2665 12.5515 87.178 12.5515C87.6727 12.5515 87.9651 12.5853 88.19 12.664V16.4869H88.1C85.2552 16.1946 83.2088 17.7013 83.2088 21.1532V29.1815H78.8574V12.7539H83.0627V15.5649ZM98.7032 27.4387C98.0398 28.4844 96.8254 29.5526 94.0369 29.5526C90.6749 29.5526 88.2687 27.8772 88.2687 24.5939C88.2687 20.9733 91.1359 19.7252 94.7902 19.2305C97.5113 18.8594 98.6469 18.6233 98.6469 17.3752C98.6469 16.1834 97.8374 15.43 96.0158 15.43C93.9582 15.43 93.0924 16.1496 92.9687 17.7463H89.0895C89.2019 14.879 91.2596 12.3266 96.0383 12.3266C100.963 12.3266 102.987 14.5305 102.987 18.3872V26.764C102.987 28.0121 103.19 28.9117 103.572 29.1928H99.2204C98.9955 28.8554 98.7594 28.0234 98.7032 27.4387ZM98.7594 23.3796V20.9171C97.9723 21.3556 96.9379 21.6142 95.8359 21.8729C93.5759 22.3901 92.6201 22.8848 92.6201 24.4253C92.6201 25.9657 93.4634 26.5167 94.9926 26.5167C97.4888 26.5167 98.7594 24.9762 98.7594 23.3796ZM0.25 8.3125V29.1703H4.60146V8.3125H0.25ZM29.7207 24.3353V15.6774H32.5318V12.7539H29.7207V8.3125H25.403V12.7427H23.143V15.6661H25.403V25.2573C25.403 28.3607 27.8092 29.1928 29.9231 29.1928C31.666 29.1928 32.6442 29.1365 32.6442 29.1365V25.9207C32.6442 25.9207 31.9246 25.9545 31.3736 25.9545C30.3841 25.9657 29.7207 25.5609 29.7207 24.3353ZM70.3344 12.2817C68.243 12.3154 66.5676 13.1475 65.6681 14.5417V8.3125H61.3166V29.1703H65.5219V27.4612C66.4776 29.0016 68.1305 29.6313 70.0757 29.6313C74.5959 29.6313 77.2607 26.3817 77.2607 20.9958C77.2607 15.6099 74.4834 12.2592 70.3344 12.2817ZM69.3224 26.1119C66.77 26.1119 65.5894 24.1104 65.5894 21.097C65.5894 18.0499 66.5788 15.8573 69.3224 15.8573C71.7511 15.8573 72.8305 17.9712 72.8305 21.0183C72.8643 24.1329 71.5825 26.1119 69.3224 26.1119ZM54.8063 15.5649L54.8962 15.3625C55.8857 13.5073 57.0101 12.5515 58.9216 12.5515C59.4164 12.5515 59.7087 12.5853 59.9336 12.664V16.4869H59.8436C56.9989 16.1946 54.9525 17.7013 54.9525 21.1532V29.1815H50.601V12.7539H54.8063V15.5649ZM121.821 20.9846C121.821 26.4042 124.576 29.62 129.062 29.62C131.007 29.62 132.717 29.0129 133.672 27.4499V29.159H137.878V8.3125H133.526V14.5417C132.627 13.1475 130.917 12.3154 128.804 12.2817C124.699 12.2592 121.821 15.6212 121.821 20.9846ZM126.229 20.9846C126.229 17.9374 127.353 15.8235 129.793 15.8235C132.548 15.8235 133.594 18.0274 133.594 21.0633C133.594 24.0767 132.345 26.1906 129.793 26.1906C127.589 26.2243 126.229 24.1329 126.229 20.9846Z" fill="white"/>
</g>
<defs>
<clipPath id="clip0_875_97883">
<rect width="137.75" height="38" fill="white" transform="translate(0.25)"/>
</clipPath>
</defs>
</svg>
