<svg width="38" height="38" viewBox="0 0 38 38" fill="none" xmlns="http://www.w3.org/2000/svg">
<path d="M32.9748 11.8235C32.9748 12.1669 32.9748 12.4416 32.9748 12.7849C32.9748 22.3307 25.764 33.25 12.5098 33.25C8.38927 33.25 4.61216 32.0825 1.45312 30.0223C2.00252 30.091 2.55192 30.1596 3.16999 30.1596C6.53506 30.1596 9.62542 28.9922 12.0977 27.0693C8.93867 27.0006 6.26036 24.9404 5.36758 22.056C5.84831 22.1247 6.26036 22.1934 6.74108 22.1934C7.35915 22.1934 8.0459 22.056 8.5953 21.9187C5.29891 21.2319 2.82662 18.3476 2.82662 14.8452V14.7765C3.78807 15.3259 4.95554 15.6006 6.12301 15.6693C4.13144 14.3645 2.89529 12.1669 2.89529 9.69458C2.89529 8.32108 3.23867 7.08494 3.85674 6.05482C7.42783 10.3813 12.7845 13.2657 18.7592 13.609C18.6218 13.0596 18.5531 12.5102 18.5531 11.9608C18.5531 7.97771 21.7808 4.75 25.764 4.75C27.8242 4.75 29.6784 5.5741 31.0519 7.01626C32.6315 6.67289 34.211 6.05482 35.5845 5.23072C35.0351 6.94759 33.9363 8.32108 32.4254 9.21386C33.8676 9.07651 35.3098 8.66446 36.5459 8.11506C35.5845 9.55723 34.3483 10.7934 32.9748 11.8235Z" fill="white"/>
</svg>
