<svg width="198" height="38" viewBox="0 0 198 38" fill="none" xmlns="http://www.w3.org/2000/svg">
<g clip-path="url(#clip0_875_97878)">
<path d="M7.91439 19.7907L19.0244 8.69255C19.7749 7.94598 20.7905 7.5269 21.8492 7.5269C22.9078 7.5269 23.9234 7.94598 24.674 8.69255L25.5374 9.55596L27.2681 7.8252L26.4047 6.95785C25.194 5.74977 23.5536 5.07129 21.8432 5.07129C20.1329 5.07129 18.4924 5.74977 17.2818 6.95785L6.17969 18.0599L7.91439 19.7907Z" fill="white" stroke="white" stroke-width="0.332"/>
<path d="M22.7462 12.3472L21.0154 10.6164L9.9015 21.7303C9.15075 22.4806 8.13272 22.9018 7.07137 22.9015C6.01001 22.9011 4.99228 22.4791 4.24205 21.7284C3.49182 20.9776 3.07055 19.9596 3.07092 18.8982C3.07129 17.8369 3.49327 16.8191 4.24402 16.0689L13.8322 6.48076L12.1014 4.75L2.51326 14.3382C1.90287 14.9344 1.41686 15.6458 1.08336 16.4312C0.749869 17.2166 0.575524 18.0604 0.570428 18.9136C0.565331 19.7669 0.729585 20.6126 1.05367 21.402C1.37776 22.1913 1.85525 22.9085 2.45847 23.5119C3.06169 24.1154 3.77865 24.5932 4.56783 24.9176C5.35701 25.2421 6.20272 25.4067 7.05598 25.402C7.90923 25.3972 8.75306 25.2232 9.5386 24.8901C10.3241 24.5569 11.0358 24.0712 11.6323 23.4611L22.7462 12.3472ZM33.8088 14.3382C32.5976 13.131 30.9574 12.4532 29.2474 12.4532C27.5373 12.4532 25.8971 13.131 24.6859 14.3382L13.572 25.4521L15.3027 27.1828L26.4166 16.0689C26.9765 15.5102 27.6894 15.1299 28.4652 14.9761C29.2411 14.8223 30.0452 14.9018 30.7758 15.2047C31.5065 15.5076 32.131 16.0203 32.5705 16.6779C33.01 17.3355 33.2447 18.1087 33.245 18.8996C33.2471 19.4266 33.1435 19.9486 32.9403 20.4348C32.7372 20.921 32.4386 21.3615 32.0623 21.7303L22.486 31.3185L24.2207 33.0493L33.8088 23.4611C35.0169 22.2504 35.6954 20.61 35.6954 18.8996C35.6954 17.1893 35.0169 15.5488 33.8088 14.3382Z" fill="white" stroke="white" stroke-width="0.332"/>
<path d="M28.4086 18.009L17.2947 29.119C16.5431 29.8682 15.5252 30.2889 14.4639 30.2889C13.4027 30.2889 12.3848 29.8682 11.6332 29.119L10.7698 28.2516L9.03906 29.9824L9.90247 30.8498C11.1137 32.0569 12.7539 32.7347 14.4639 32.7347C16.1739 32.7347 17.8142 32.0569 19.0254 30.8498L30.1393 19.7319L28.4086 18.009Z" fill="white" stroke="white" stroke-width="0.332"/>
<path d="M45.8501 21.8884C45.9638 22.5476 46.323 23.1392 46.8554 23.5442C47.4662 23.9667 48.1993 24.176 48.941 24.1395C49.6471 24.1846 50.346 23.9763 50.9123 23.5521C51.138 23.3643 51.3178 23.1275 51.4381 22.8597C51.5583 22.5918 51.6158 22.3001 51.6061 22.0067C51.6141 21.7322 51.5502 21.4604 51.4208 21.2182C51.2913 20.9983 51.1133 20.8109 50.9004 20.6701C50.6466 20.5016 50.3706 20.3689 50.0804 20.2759L48.9844 19.9447L47.9396 19.6609C47.3604 19.5074 46.7968 19.3002 46.2562 19.0419C45.792 18.8224 45.3629 18.5354 44.9827 18.1903C44.6437 17.8755 44.375 17.4926 44.1942 17.0667C44.0014 16.5982 43.9075 16.0948 43.9183 15.5883C43.9127 15.027 44.034 14.4717 44.2731 13.964C44.5036 13.4698 44.8449 13.0354 45.2705 12.6945C45.7387 12.3197 46.2739 12.0374 46.8475 11.8626C47.5179 11.6502 48.2182 11.5477 48.9213 11.559C50.3695 11.559 51.5168 11.9007 52.3631 12.5841C52.7826 12.9219 53.1304 13.3399 53.3863 13.8138C53.6422 14.2877 53.801 14.8078 53.8534 15.3438L51.4879 15.537C51.3708 14.9943 51.0666 14.51 50.6284 14.169C50.0972 13.8139 49.4645 13.6422 48.8267 13.6801C48.2248 13.6447 47.6295 13.8204 47.1432 14.1768C46.949 14.3282 46.793 14.5229 46.6875 14.7454C46.5821 14.9679 46.5302 15.212 46.5361 15.4582C46.5264 15.7206 46.5877 15.9807 46.7135 16.2112C46.8403 16.4239 47.0143 16.6047 47.2221 16.7395C47.4753 16.9042 47.7482 17.0366 48.0342 17.1337C48.3536 17.252 48.7163 17.3782 49.1184 17.5083L50.1198 17.8197C50.7427 18.0168 51.3065 18.2219 51.8112 18.4347C52.2752 18.6321 52.7071 18.8979 53.0925 19.2232C53.4398 19.5172 53.7172 19.8849 53.9046 20.2996C54.1075 20.7888 54.2042 21.3156 54.1885 21.845C54.195 22.4639 54.0602 23.0761 53.7942 23.6349C53.5377 24.1717 53.163 24.6434 52.6982 25.0148C52.1988 25.4097 51.6307 25.7091 51.0227 25.8979C50.3298 26.1134 49.6074 26.2185 48.8819 26.2094C47.5988 26.2572 46.333 25.9014 45.2627 25.1922C44.763 24.8306 44.3446 24.3684 44.0343 23.8354C43.724 23.3024 43.5287 22.7104 43.4609 22.0973L45.8501 21.8884ZM64.163 11.5985C65.1547 11.5856 66.1393 11.7678 67.0607 12.1346C67.9023 12.4717 68.6619 12.9852 69.2883 13.6407C69.9168 14.309 70.4036 15.0975 70.7194 15.9589C71.0661 16.9057 71.2384 17.9075 71.228 18.9157C71.2421 19.9425 71.0588 20.9624 70.6878 21.9199C70.3421 22.7902 69.8199 23.5795 69.1542 24.2381L71.0308 26.4341V27.1161H68.6653L67.3525 25.5115C66.8769 25.7391 66.3787 25.9162 65.8662 26.0398C65.3129 26.1581 64.7485 26.2163 64.1827 26.2133C63.1797 26.2193 62.1854 26.0264 61.2574 25.6456C60.4206 25.3064 59.6663 24.7914 59.0456 24.1356C58.4248 23.4703 57.9459 22.6856 57.6382 21.8292C57.2982 20.8918 57.1286 19.9011 57.1375 18.9039C57.1276 17.9002 57.2972 16.9029 57.6382 15.9589C57.9478 15.0996 58.4309 14.3132 59.0575 13.6486C59.6823 12.993 60.4387 12.477 61.2771 12.1346C62.1932 11.7634 63.1747 11.5811 64.163 11.5985ZM64.1433 13.7116C63.4924 13.7016 62.8474 13.8363 62.2548 14.1059C61.7104 14.3574 61.2295 14.7279 60.8474 15.1901C60.45 15.6747 60.1501 16.2316 59.9642 16.8301C59.7586 17.4965 59.6575 18.1908 59.6646 18.8881C59.6577 19.5915 59.7629 20.2915 59.9761 20.9619C60.167 21.5658 60.4692 22.1288 60.8671 22.6217C61.2485 23.0895 61.7293 23.4666 62.2745 23.7256C62.8664 23.9971 63.5119 24.1319 64.163 24.1198C64.8136 24.1262 65.4578 23.9917 66.0515 23.7256C66.5948 23.4795 67.0758 23.1143 67.4589 22.6572C67.8614 22.1718 68.1642 21.6118 68.3499 21.0092C68.5656 20.3231 68.672 19.6073 68.6653 18.8881C68.6714 18.1793 68.5649 17.4741 68.3499 16.7986C68.1615 16.1996 67.8589 15.6426 67.4589 15.1585C67.0718 14.7013 66.5885 14.3352 66.0436 14.0862C65.4451 13.8241 64.7965 13.6963 64.1433 13.7116ZM80.5204 24.2184C80.9587 24.2454 81.3976 24.1761 81.8063 24.0153C82.215 23.8546 82.5835 23.6063 82.8859 23.288C83.4458 22.6703 83.7257 21.7215 83.7257 20.4415V11.8705H86.1819V20.5203C86.2013 21.4065 86.0679 22.2894 85.7876 23.1303C85.5611 23.8038 85.1789 24.4144 84.6719 24.9123C84.1689 25.3885 83.5592 25.7372 82.8938 25.9294C81.3459 26.3575 79.7108 26.3575 78.1628 25.9294C77.4998 25.7371 76.8927 25.3882 76.3926 24.9123C75.8869 24.4133 75.5049 23.8031 75.2769 23.1303C74.9968 22.2893 74.8634 21.4065 74.8827 20.5203V11.8705H77.3467V20.4415C77.3467 21.7189 77.628 22.6677 78.1904 23.288C78.4886 23.602 78.8513 23.8478 79.2535 24.0084C79.6557 24.169 80.0879 24.2407 80.5204 24.2184ZM88.642 25.2513L93.6292 11.8863H97.3273L102.259 25.2513V25.9216H99.8347L98.4233 21.9081H92.34L90.9129 25.9216H88.6262L88.642 25.2513ZM93.0812 19.8107H97.7216L96.9567 17.5792C96.6571 16.7079 96.4166 16.0022 96.2313 15.4463C96.046 14.8904 95.8883 14.4173 95.7424 13.9994H95.1392L94.9027 14.6657C94.8238 14.8865 94.7371 15.1349 94.6385 15.4069C94.54 15.6789 94.4335 15.9943 94.3152 16.3492C94.197 16.704 94.055 17.1101 93.8855 17.5792L93.0812 19.8107ZM116.034 25.9216H113.669L109.383 20.4021H107.806V25.9216H105.378V11.8705H109.939C110.623 11.8693 111.305 11.918 111.982 12.0164C112.61 12.1075 113.21 12.3393 113.736 12.6945C114.845 13.4251 115.4 14.5264 115.4 15.9983C115.411 16.5687 115.313 17.136 115.112 17.6699C114.942 18.1194 114.686 18.5317 114.359 18.8842C114.047 19.2154 113.68 19.4902 113.275 19.6963C112.868 19.9042 112.438 20.0617 111.993 20.1655L116.034 25.2513V25.9216ZM107.799 18.2889H109.931C110.705 18.33 111.474 18.1524 112.151 17.7764C112.424 17.5941 112.643 17.3423 112.786 17.0471C112.928 16.7518 112.99 16.4238 112.963 16.0968C112.996 15.7724 112.935 15.4454 112.789 15.1538C112.644 14.8621 112.418 14.6178 112.139 14.4489C111.455 14.1086 110.695 13.9485 109.931 13.9837H107.799V18.2889ZM119.165 11.8705H128.264V14.0231H121.562V17.7014H127.783V19.8146H121.574V23.7571H128.402V25.9216H119.165V11.8705ZM133.843 21.8884C133.956 22.5476 134.316 23.1392 134.848 23.5442C135.459 23.9662 136.192 24.1754 136.934 24.1395C137.64 24.1846 138.339 23.9763 138.905 23.5521C139.131 23.3643 139.31 23.1275 139.431 22.8597C139.551 22.5918 139.608 22.3001 139.599 22.0067C139.607 21.7322 139.543 21.4604 139.413 21.2182C139.284 20.9983 139.106 20.8109 138.893 20.6701C138.639 20.5016 138.363 20.3689 138.073 20.2759L136.977 19.9447L135.92 19.653C135.341 19.4995 134.778 19.2923 134.237 19.034C133.773 18.8145 133.344 18.5276 132.964 18.1824C132.625 17.8676 132.356 17.4847 132.175 17.0588C131.98 16.5626 131.887 16.0324 131.9 15.4995C131.914 14.9665 132.034 14.4417 132.254 13.9561C132.486 13.4627 132.827 13.0286 133.251 12.6866C133.72 12.3119 134.255 12.0295 134.828 11.8547C135.499 11.6423 136.199 11.5398 136.902 11.5511C138.35 11.5511 139.499 11.8928 140.348 12.5762C140.767 12.9142 141.114 13.3324 141.369 13.8062C141.624 14.2801 141.783 14.8002 141.834 15.3359L139.469 15.5291C139.354 14.9875 139.052 14.5034 138.617 14.1611C138.086 13.8054 137.453 13.6337 136.815 13.6722C136.214 13.6368 135.618 13.8125 135.132 14.169C134.938 14.3207 134.783 14.5156 134.678 14.7381C134.574 14.9606 134.522 15.2045 134.529 15.4503C134.518 15.7123 134.578 15.9724 134.702 16.2033C134.829 16.416 135.003 16.5968 135.211 16.7316C135.464 16.8963 135.737 17.0288 136.023 17.1258C136.342 17.2441 136.705 17.3703 137.111 17.5004L138.109 17.8118C138.734 18.009 139.298 18.214 139.8 18.4269C140.264 18.6242 140.696 18.89 141.081 19.2154C141.428 19.5094 141.706 19.877 141.893 20.2917C142.096 20.781 142.193 21.3077 142.177 21.8371C142.184 22.456 142.049 23.0682 141.783 23.627C141.528 24.1646 141.153 24.6366 140.687 25.0069C140.187 25.3986 139.619 25.6953 139.011 25.8821C138.317 26.0976 137.593 26.2027 136.867 26.1936C135.584 26.2409 134.318 25.8852 133.247 25.1764C132.751 24.8158 132.335 24.3558 132.026 23.8257C131.718 23.2956 131.522 22.707 131.454 22.0973L133.843 21.8884ZM145.678 11.8705H150.803C151.615 11.8495 152.425 11.9627 153.2 12.2056C153.789 12.3872 154.329 12.7014 154.777 13.1242C155.172 13.5077 155.467 13.9812 155.637 14.5041C155.818 15.0562 155.907 15.6342 155.901 16.2151C155.917 16.8697 155.794 17.5203 155.538 18.1233C155.308 18.6506 154.949 19.1115 154.494 19.4637C153.996 19.8324 153.43 20.1002 152.83 20.2522C152.107 20.4376 151.364 20.5264 150.618 20.5164H148.134V25.9216H145.686L145.678 11.8705ZM148.126 18.4072H150.472C150.869 18.4101 151.265 18.3744 151.655 18.3007C151.987 18.2386 152.305 18.1171 152.593 17.9419C152.859 17.7758 153.075 17.5417 153.22 17.2638C153.379 16.9376 153.456 16.5777 153.445 16.2151C153.457 15.8436 153.38 15.4746 153.22 15.1388C153.08 14.8574 152.866 14.6191 152.601 14.4489C152.317 14.2725 152.003 14.1508 151.675 14.0901C151.285 14.0158 150.889 13.9801 150.492 13.9837H148.107L148.126 18.4072ZM156.579 25.2513L161.57 11.8863H165.268L170.197 25.2513V25.9216H167.792L166.384 21.9081H160.277L158.87 25.9216H156.579V25.2513ZM161.022 19.8107H165.659L164.894 17.5792C164.594 16.7079 164.354 16.0022 164.172 15.4463L163.684 13.9994H163.061L162.824 14.6657C162.745 14.8865 162.658 15.1349 162.56 15.4069C162.461 15.6789 162.355 15.9943 162.237 16.3492C162.118 16.704 161.976 17.1101 161.807 17.5792L161.022 19.8107ZM185.107 22.2038C184.884 22.7535 184.593 23.2728 184.24 23.7492C183.873 24.2377 183.433 24.666 182.935 25.0187C182.395 25.3982 181.797 25.6884 181.165 25.8782C180.438 26.0957 179.683 26.202 178.925 26.1936C177.946 26.2084 176.975 26.0219 176.071 25.6456C175.243 25.3003 174.498 24.7844 173.883 24.1317C173.265 23.464 172.789 22.6781 172.483 21.8214C172.149 20.8895 171.982 19.9058 171.99 18.9157C171.982 17.9257 172.148 16.9419 172.483 16.0101C172.789 15.1495 173.268 14.3607 173.891 13.6919C174.509 13.0322 175.258 12.5086 176.091 12.1543C176.997 11.7731 177.973 11.5838 178.957 11.5985C180.325 11.5498 181.675 11.9258 182.82 12.6748C183.839 13.3686 184.611 14.3682 185.024 15.5291L182.537 16.018C182.227 15.3352 181.736 14.7502 181.117 14.3267C180.463 13.9032 179.696 13.6887 178.917 13.7116C178.279 13.6977 177.646 13.8326 177.068 14.1059C176.537 14.3668 176.069 14.7425 175.7 15.2058C175.313 15.6995 175.024 16.2629 174.849 16.8656C174.647 17.5288 174.548 18.2187 174.553 18.9118C174.547 19.6094 174.65 20.3036 174.857 20.9698C175.042 21.5665 175.341 22.1219 175.736 22.6059C176.121 23.0604 176.602 23.425 177.143 23.6743C177.733 23.9447 178.375 24.0794 179.024 24.0686C179.83 24.101 180.624 23.8668 181.283 23.4023C181.864 22.9767 182.337 22.4202 182.663 21.778L185.107 22.2038ZM188.415 11.8705H197.514V14.0231H190.812V17.7014H197.045V19.8146H190.824V23.7571H197.652V25.9216H188.415V11.8705Z" fill="white" stroke="white" stroke-width="0.332"/>
</g>
<defs>
<clipPath id="clip0_875_97878">
<rect width="197.125" height="38" fill="white" transform="translate(0.625)"/>
</clipPath>
</defs>
</svg>
