<svg width="95" height="38" viewBox="0 0 95 38" fill="none" xmlns="http://www.w3.org/2000/svg">
<path fill-rule="evenodd" clip-rule="evenodd" d="M58.6688 31.7847C53.174 35.8419 45.209 37.9967 38.3496 37.9967C29.1839 38.0441 20.3308 34.6672 13.525 28.5277C13.0137 28.0629 13.4719 27.4287 14.0894 27.7906C21.6532 32.1133 30.2154 34.3841 38.9273 34.3778C45.4357 34.3463 51.8738 33.0296 57.872 30.5032C58.8016 30.1081 59.5918 31.1141 58.6688 31.7847Z" fill="white"/>
<path fill-rule="evenodd" clip-rule="evenodd" d="M60.9586 29.1753C60.2547 28.2755 56.3104 28.7503 54.5408 28.9628C54.0062 29.0259 53.9199 28.5577 54.4046 28.2191C57.5488 26.0079 62.705 26.6453 63.3026 27.3857C63.9002 28.1261 63.1465 33.2989 60.1983 35.7657C59.7434 36.1442 59.3118 35.9417 59.5143 35.4337C60.175 33.7836 61.6624 30.075 60.9586 29.1753Z" fill="white"/>
<path fill-rule="evenodd" clip-rule="evenodd" d="M54.664 12.6111V10.4663C54.6617 10.3942 54.6742 10.3223 54.7007 10.2552C54.7273 10.1881 54.7673 10.1272 54.8183 10.0761C54.8694 10.0251 54.9303 9.98508 54.9974 9.95853C55.0645 9.93198 55.1364 9.91947 55.2085 9.92178H64.8369C64.9095 9.92001 64.9817 9.93278 65.0493 9.95935C65.1169 9.98592 65.1785 10.0257 65.2305 10.0765C65.2825 10.1272 65.3238 10.1879 65.352 10.2548C65.3802 10.3217 65.3947 10.3936 65.3947 10.4663V12.3056C65.3947 12.6144 65.1324 13.0195 64.6709 13.6569L59.6907 20.772C61.5433 20.7288 63.4989 21.0077 65.1788 21.9506C65.3295 22.0344 65.4558 22.1559 65.5454 22.3031C65.635 22.4504 65.6849 22.6183 65.6901 22.7906V25.0815C65.6901 25.4135 65.3581 25.7621 64.983 25.5696C63.4098 24.7615 61.666 24.3416 59.8974 24.3451C58.1288 24.3485 56.3867 24.7752 54.8167 25.5895C54.4847 25.7688 54.1295 25.4069 54.1295 25.0915V22.9135C54.0991 22.3973 54.224 21.8839 54.488 21.4393L60.2551 13.1523H55.2185C55.146 13.155 55.0738 13.1429 55.0062 13.1169C54.9386 13.0908 54.877 13.0512 54.8251 13.0006C54.7733 12.95 54.7322 12.8894 54.7045 12.8224C54.6768 12.7554 54.663 12.6835 54.664 12.6111Z" fill="white"/>
<path fill-rule="evenodd" clip-rule="evenodd" d="M19.5746 26.0046H16.6496C16.5173 25.9989 16.3915 25.9458 16.2952 25.855C16.1988 25.7641 16.1384 25.6416 16.125 25.5099V10.5029C16.1263 10.4303 16.1419 10.3586 16.1711 10.292C16.2002 10.2254 16.2422 10.1652 16.2946 10.1149C16.3471 10.0646 16.409 10.0252 16.4767 9.99889C16.5445 9.9726 16.6168 9.95998 16.6894 9.96174H19.4252C19.5602 9.96615 19.6889 10.02 19.7868 10.113C19.8848 10.2061 19.9451 10.3318 19.9564 10.4664V12.4286H20.0129C20.7234 10.5328 22.0614 9.64634 23.8642 9.64634C25.6671 9.64634 26.8523 10.5328 27.6625 12.4286C27.9332 11.7134 28.389 11.083 28.9834 10.6018C29.5778 10.1206 30.2894 9.80605 31.0453 9.6902C31.8012 9.57435 32.5743 9.6614 33.2855 9.94246C33.9967 10.2235 34.6204 10.6885 35.0929 11.2898C36.0225 12.5548 35.83 14.3875 35.83 16.0011V25.48C35.8287 25.5527 35.813 25.6244 35.7839 25.691C35.7548 25.7576 35.7128 25.8178 35.6604 25.8681C35.6079 25.9184 35.546 25.9578 35.4783 25.9841C35.4105 26.0104 35.3382 26.023 35.2656 26.0212H32.3405C32.2007 26.0161 32.0683 25.9574 31.9706 25.8573C31.8729 25.7571 31.8176 25.6232 31.8159 25.4834V17.515C31.8159 16.8842 31.8691 15.3038 31.7329 14.7029C31.5138 13.7069 30.8597 13.4047 30.0131 13.4047C29.6324 13.416 29.2634 13.5391 28.9523 13.7588C28.6411 13.9784 28.4015 14.2848 28.2634 14.6398C27.9613 15.3968 27.9911 16.6618 27.9911 17.515V25.4834C27.9877 25.6298 27.9263 25.769 27.8206 25.8704C27.7148 25.9718 27.5732 26.0272 27.4267 26.0245H24.5017C24.3619 26.0194 24.2294 25.9607 24.1318 25.8606C24.0341 25.7604 23.9787 25.6266 23.9771 25.4867V17.5184C23.9771 15.8417 24.2494 13.3782 22.1743 13.3782C20.0992 13.3782 20.1523 15.7786 20.1523 17.5184V25.4867C20.1485 25.5587 20.1305 25.6292 20.0994 25.6942C20.0683 25.7592 20.0246 25.8174 19.971 25.8655C19.9173 25.9137 19.8547 25.9507 19.7866 25.9746C19.7186 25.9984 19.6466 26.0086 19.5746 26.0046Z" fill="white"/>
<path fill-rule="evenodd" clip-rule="evenodd" d="M73.6698 9.64258C78.0158 9.64258 80.3631 13.3744 80.3631 18.1155C80.3631 22.7006 77.7701 26.3362 73.6698 26.3362C69.4067 26.3362 67.0859 22.6044 67.0859 17.9562C67.0859 13.308 69.4366 9.64258 73.6698 9.64258ZM73.6963 12.7104C71.5382 12.7104 71.4021 15.6487 71.4021 17.4847C71.4021 19.3208 71.3756 23.2352 73.6698 23.2352C75.964 23.2352 76.047 20.0744 76.047 18.1488C76.047 16.8838 75.9939 15.3665 75.6087 14.1646C75.2833 13.1221 74.626 12.7237 73.6963 12.7237V12.7104Z" fill="white"/>
<path fill-rule="evenodd" clip-rule="evenodd" d="M85.9865 26.0044H83.0715C82.9317 25.9993 82.7992 25.9406 82.7015 25.8404C82.6039 25.7403 82.5485 25.6064 82.5469 25.4665V10.4363C82.5641 10.2996 82.6312 10.1741 82.7355 10.084C82.8397 9.99389 82.9735 9.94553 83.1113 9.94825H85.8139C85.9347 9.95253 86.0509 9.99596 86.1449 10.072C86.2389 10.1481 86.3057 10.2526 86.3351 10.3699V12.6674H86.3916C87.2083 10.6123 88.3571 9.63283 90.3757 9.63283C91.0505 9.60137 91.7217 9.74839 92.3215 10.0591C92.9213 10.3698 93.4286 10.8331 93.7922 11.4025C94.5558 12.6043 94.5558 14.6296 94.5558 16.0838V25.5363C94.5356 25.6697 94.4675 25.7911 94.3642 25.8779C94.2609 25.9647 94.1296 26.0108 93.9947 26.0077H91.0597C90.9317 26.0015 90.8098 25.9511 90.7148 25.8651C90.6198 25.7792 90.5575 25.663 90.5384 25.5363V17.3887C90.5384 15.7452 90.731 13.3414 88.709 13.3414C88.341 13.3574 87.9855 13.4793 87.6851 13.6925C87.3847 13.9057 87.1523 14.2012 87.0158 14.5433C86.6543 15.4463 86.4956 16.4176 86.551 17.3887V25.4765C86.5424 25.6201 86.4791 25.7549 86.3741 25.8531C86.2691 25.9513 86.1303 26.0055 85.9865 26.0044Z" fill="white"/>
<path fill-rule="evenodd" clip-rule="evenodd" d="M47.0024 18.8464C47.0024 19.9852 47.029 20.9348 46.4546 21.9507C46.267 22.334 45.9796 22.6596 45.6226 22.8933C45.2656 23.127 44.8523 23.2602 44.426 23.2788C43.3038 23.2788 42.6464 22.4255 42.6464 21.1572C42.6464 18.6638 44.8842 18.2123 47.0024 18.2123V18.8464ZM49.9706 25.9814C49.8757 26.0623 49.7582 26.1121 49.6341 26.124C49.51 26.1359 49.3852 26.1093 49.2767 26.0478C48.6036 25.5058 48.0354 24.8453 47.6 24.0989C45.9931 25.7357 44.8543 26.2271 42.7726 26.2271C40.309 26.2271 38.3933 24.7064 38.3933 21.6652C38.3598 20.6439 38.6413 19.637 39.1996 18.7811C39.7579 17.9253 40.566 17.2618 41.5142 16.8809C43.1012 16.1837 45.3191 16.0575 47.019 15.8849V15.503C47.019 14.8058 47.0721 13.9824 46.6637 13.3815C46.4698 13.1293 46.2172 12.9282 45.9279 12.7957C45.6386 12.6632 45.3214 12.6033 45.0037 12.6212C43.8848 12.6212 42.8954 13.1922 42.6497 14.3775C42.635 14.5102 42.5774 14.6345 42.4858 14.7315C42.3941 14.8286 42.2733 14.8931 42.1417 14.9154L39.3063 14.6099C39.2361 14.6009 39.1685 14.5774 39.1077 14.541C39.0469 14.5046 38.9943 14.4561 38.9532 14.3984C38.9121 14.3408 38.8833 14.2752 38.8686 14.206C38.854 14.1367 38.8538 14.0651 38.8681 13.9957C39.5321 10.556 42.6265 9.51685 45.4121 9.51685C46.8364 9.51685 48.699 9.89534 49.8212 10.9711C51.2455 12.2991 51.1094 14.0787 51.1094 16.011V20.5696C51.1094 21.9408 51.6771 22.545 52.215 23.2821C52.3176 23.3854 52.3752 23.525 52.3752 23.6706C52.3752 23.8161 52.3176 23.9558 52.215 24.059C51.6174 24.5604 50.5549 25.4834 49.9706 26.0046V25.9814Z" fill="white"/>
<path fill-rule="evenodd" clip-rule="evenodd" d="M8.62837 18.8462C8.62837 19.985 8.65493 20.9345 8.08055 21.9505C7.89324 22.3333 7.60636 22.6585 7.25001 22.8922C6.89366 23.1259 6.48097 23.2593 6.05527 23.2785C4.93307 23.2785 4.27568 22.4253 4.27568 21.157C4.27568 18.6636 6.51013 18.212 8.62837 18.212V18.8462ZM11.58 25.9811C11.4851 26.0621 11.3676 26.1119 11.2435 26.1237C11.1193 26.1356 10.9946 26.109 10.8861 26.0475C10.2139 25.5047 9.64579 24.8443 9.20939 24.0986C7.60245 25.7354 6.46365 26.2268 4.38524 26.2268C1.91839 26.2268 0.00267313 24.7062 0.00267313 21.665C-0.0307968 20.6436 0.250715 19.6367 0.809019 18.7809C1.36732 17.925 2.17539 17.2616 3.1236 16.8806C4.71394 16.1834 6.93178 16.0573 8.62837 15.8846V15.5028C8.62837 14.8056 8.68149 13.9822 8.27312 13.3812C8.07914 13.129 7.82656 12.9279 7.53727 12.7954C7.24798 12.6629 6.93073 12.603 6.61305 12.6209C5.49749 12.6209 4.50477 13.192 4.25908 14.3773C4.24436 14.5099 4.18681 14.6342 4.09515 14.7313C4.0035 14.8283 3.88272 14.8929 3.7511 14.9151L0.915709 14.6097C0.845704 14.598 0.778855 14.572 0.719311 14.5333C0.659767 14.4947 0.6088 14.4442 0.569572 14.3851C0.530344 14.3259 0.503692 14.2594 0.491272 14.1895C0.478852 14.1196 0.480928 14.0479 0.497372 13.9789C1.1614 10.5392 4.25908 9.5 7.04467 9.5C8.46569 9.5 10.3283 9.8785 11.4505 10.9542C12.8748 12.2823 12.7387 14.0619 12.7387 15.9942V20.5527C12.7387 21.9239 13.3098 22.5282 13.8443 23.2653C13.9469 23.3685 14.0045 23.5082 14.0045 23.6537C14.0045 23.7993 13.9469 23.9389 13.8443 24.0422C13.2467 24.5435 12.1842 25.4665 11.5999 25.9878L11.58 25.9811Z" fill="white"/>
</svg>
