<svg width="39" height="38" viewBox="0 0 39 38" fill="none" xmlns="http://www.w3.org/2000/svg">
<path fill-rule="evenodd" clip-rule="evenodd" d="M18.2459 4.96255H14.1749C11.9265 4.96255 10.1038 6.67131 10.1038 8.77918C10.1038 10.887 11.9265 12.5958 14.1749 12.5958H18.2459V4.96255ZM18.2459 2.375H21.006H25.0771C28.8499 2.375 31.9081 5.24223 31.9081 8.77918C31.9081 10.8664 30.8432 12.7204 29.1947 13.8896C30.8432 15.0588 31.9081 16.9128 31.9081 19C31.9081 22.5369 28.8499 25.4042 25.0771 25.4042C23.5516 25.4042 22.1429 24.9354 21.006 24.1432V25.4042V29.2208C21.006 32.7577 17.9476 35.625 14.1749 35.625C10.4021 35.625 7.34375 32.7577 7.34375 29.2208C7.34375 27.1334 8.4088 25.2796 10.0572 24.1104C8.4088 22.9412 7.34375 21.0872 7.34375 19C7.34375 16.9128 8.40883 15.0588 10.0573 13.8896C8.40883 12.7204 7.34375 10.8664 7.34375 8.77918C7.34375 5.24223 10.4021 2.375 14.1749 2.375H18.2459ZM21.006 4.96255V12.5958H25.0771C27.3255 12.5958 29.148 10.887 29.148 8.77918C29.148 6.67131 27.3255 4.96255 25.0771 4.96255H21.006ZM14.1749 22.8166H18.2459V19.0098V19V18.9902V15.1834H14.1749C11.9265 15.1834 10.1038 16.8921 10.1038 19C10.1038 21.1028 11.9178 22.8085 14.1587 22.8166L14.1749 22.8166ZM10.1038 29.2208C10.1038 27.1179 11.9178 25.4123 14.1587 25.4042L14.1749 25.4042H18.2459V29.2208C18.2459 31.3286 16.4233 33.0375 14.1749 33.0375C11.9265 33.0375 10.1038 31.3286 10.1038 29.2208ZM21.006 18.9924C21.0104 16.888 22.8314 15.1834 25.0771 15.1834C27.3255 15.1834 29.148 16.8921 29.148 19C29.148 21.1079 27.3255 22.8166 25.0771 22.8166C22.8314 22.8166 21.0104 21.112 21.006 19.0076V18.9924Z" fill="white"/>
</svg>
